<svg width="24" height="24" viewBox="0 0 24 24" fill="none" xmlns="http://www.w3.org/2000/svg">
<g clip-path="url(#clip0)">
<path d="M19.1048 4.10982C17.6483 1.5962 15.0612 0.0605249 12.1842 0.0018374C12.0614 -0.000693848 11.9378 -0.000693848 11.8149 0.0018374C8.93802 0.0605249 6.35089 1.5962 4.8943 4.10982C3.40546 6.67913 3.36472 9.76538 4.78532 12.3656L10.7367 23.2587C10.7394 23.2636 10.7421 23.2684 10.7448 23.2732C11.0067 23.7283 11.4757 24 11.9997 24C12.5235 24 12.9926 23.7282 13.2544 23.2732C13.2572 23.2684 13.2598 23.2636 13.2625 23.2587L19.2139 12.3656C20.6344 9.76538 20.5937 6.67913 19.1048 4.10982ZM11.9996 10.875C10.1386 10.875 8.62457 9.36095 8.62457 7.49996C8.62457 5.63898 10.1386 4.12496 11.9996 4.12496C13.8605 4.12496 15.3746 5.63898 15.3746 7.49996C15.3746 9.36095 13.8606 10.875 11.9996 10.875Z" fill="white"/>
</g>
<defs>
<clipPath id="clip0">
<rect width="24" height="24" fill="white"/>
</clipPath>
</defs>
</svg>
