<svg width="24" height="24" viewBox="0 0 24 24" fill="none" xmlns="http://www.w3.org/2000/svg">
<path d="M23.9821 5.17034C23.9821 5.14292 24.001 5.11623 23.9997 5.08912L16.6757 12.1462L23.991 18.9778C23.9952 18.929 23.9821 18.8798 23.9821 18.8299V5.17034Z" fill="white"/>
<path d="M15.5581 13.2321L12.5683 16.1087C12.417 16.2542 12.2216 16.3272 12.0261 16.3272C11.8346 16.3272 11.6432 16.2574 11.4929 16.1173L8.51121 13.3388L1.14823 20.4359C1.32726 20.5003 1.51944 20.5502 1.72068 20.5502H22.3316C22.6304 20.5502 22.9107 20.4592 23.1544 20.3234L15.5581 13.2321Z" fill="white"/>
<path d="M12.0174 14.4683L23.1948 3.70123C22.9418 3.55076 22.6472 3.44983 22.3315 3.44983H1.72057C1.30943 3.44983 0.932703 3.60947 0.639285 3.85294L12.0174 14.4683Z" fill="white"/>
<path d="M0 5.43252V18.8296C0 18.9834 0.0353478 19.1317 0.0737194 19.2734L7.34535 12.271L0 5.43252Z" fill="white"/>
</svg>
