<svg width="24" height="24" viewBox="0 0 24 24" fill="none" xmlns="http://www.w3.org/2000/svg">
<g clip-path="url(#clip0)">
<path d="M9.93752 14.0619C7.64676 11.7712 7.12952 9.48041 7.01283 8.56262C6.98022 8.30885 7.06755 8.05435 7.24911 7.87407L9.1029 6.0211C9.3756 5.74858 9.42399 5.32385 9.21959 4.99697L6.268 0.413793C6.04187 0.051827 5.57756 -0.0788101 5.19587 0.112138L0.457521 2.34372C0.148855 2.49571 -0.0326973 2.82366 0.00234825 3.16593C0.250624 5.52455 1.2789 11.3226 6.97683 17.021C12.6748 22.7193 18.472 23.7472 20.8319 23.9954C21.1741 24.0305 21.5021 23.8489 21.6541 23.5403L23.8857 18.8019C24.0759 18.4211 23.9461 17.958 23.5857 17.7314L19.0025 14.7807C18.6758 14.5761 18.2511 14.6241 17.9783 14.8966L16.1254 16.7503C15.9451 16.9319 15.6906 17.0192 15.4368 16.9866C14.519 16.8699 12.2283 16.3527 9.93752 14.0619Z" fill="white"/>
<path d="M19.0339 12.8276C18.5769 12.8276 18.2063 12.4571 18.2063 12C18.2025 8.57363 15.4258 5.79698 11.9995 5.7931C11.5424 5.7931 11.1719 5.42258 11.1719 4.96552C11.1719 4.50845 11.5424 4.13793 11.9995 4.13793C16.3396 4.14272 19.8567 7.65988 19.8615 12C19.8615 12.4571 19.491 12.8276 19.0339 12.8276Z" fill="white"/>
<path d="M23.1719 12.8276C22.7148 12.8276 22.3443 12.4571 22.3443 12C22.3379 6.28936 17.7101 1.66156 11.9995 1.65517C11.5424 1.65517 11.1719 1.28465 11.1719 0.827586C11.1719 0.370523 11.5424 0 11.9995 0C18.6238 0.0072976 23.9922 5.37561 23.9995 12C23.9995 12.2195 23.9123 12.43 23.7571 12.5852C23.6019 12.7404 23.3914 12.8276 23.1719 12.8276Z" fill="white"/>
</g>
<defs>
<clipPath id="clip0">
<rect width="24" height="24" fill="white"/>
</clipPath>
</defs>
</svg>
