<svg width="50" height="50" viewBox="0 0 50 50" fill="none" xmlns="http://www.w3.org/2000/svg">
<g clip-path="url(#clip0)">
<path d="M24.9999 14.6484C19.3465 14.6484 14.746 19.249 14.746 24.9024C14.746 30.5557 19.3465 35.1563 24.9999 35.1563C30.6533 35.1563 35.2538 30.5557 35.2538 24.9024C35.2538 19.249 30.6533 14.6484 24.9999 14.6484ZM31.895 23.0084L24.5708 30.3326C24.2847 30.6187 23.9097 30.7617 23.5351 30.7617C23.1605 30.7617 22.7855 30.6187 22.4994 30.3326L18.1048 25.938C17.5326 25.3658 17.5326 24.4389 18.1048 23.8667C18.677 23.2945 19.604 23.2945 20.1762 23.8667L23.5351 27.2255L29.8236 20.937C30.3958 20.3648 31.3228 20.3648 31.895 20.937C32.4672 21.5092 32.4672 22.4362 31.895 23.0084Z" fill="#CE6439"/>
<path d="M42.5781 5.85938H39.1464C34.1937 5.85938 29.5375 3.8334 26.0356 0.331498C25.4634 -0.240708 24.5364 -0.240708 23.9642 0.331498C20.4623 3.8334 15.8061 5.85938 10.8535 5.85938H7.42176C6.61189 5.85938 5.95691 6.51437 5.95691 7.32423V24.9024C5.95691 38.0658 15.5356 44.1888 21.8741 48.1755C22.4536 48.539 24.3831 49.9024 24.9999 49.9024C25.6152 49.9024 27.4936 48.5741 28.0711 48.2114C34.4314 44.2219 44.0429 38.0929 44.0429 24.9024V7.32423C44.0429 6.51437 43.3875 5.85938 42.5781 5.85938ZM24.9999 38.086C17.7298 38.086 11.8163 32.1721 11.8163 24.9024C11.8163 17.6323 17.7298 11.7188 24.9999 11.7188C32.2696 11.7188 38.1835 17.6323 38.1835 24.9024C38.1835 32.1721 32.2696 38.086 24.9999 38.086Z" fill="#CE6439"/>
</g>
<defs>
<clipPath id="clip0">
<rect width="50" height="50" fill="white"/>
</clipPath>
</defs>
</svg>
