<svg width="50" height="50" viewBox="0 0 50 50" fill="none" xmlns="http://www.w3.org/2000/svg">
<path d="M14.0625 41.6667H21.3542C22.2167 41.6667 22.9167 40.9667 22.9167 40.1042C22.9167 39.2417 22.2167 38.5417 21.3542 38.5417H15.625V37.5C15.625 36.3521 16.5604 35.4167 17.7083 35.4167C20.5792 35.4167 22.9167 33.0792 22.9167 30.2083C22.9167 27.3375 20.5792 25 17.7083 25H14.0625C13.2 25 12.5 25.7 12.5 26.5625C12.5 27.425 13.2 28.125 14.0625 28.125H17.7083C18.8563 28.125 19.7917 29.0604 19.7917 30.2083C19.7917 31.3562 18.8563 32.2917 17.7083 32.2917C14.8375 32.2917 12.5 34.6292 12.5 37.5V40.1042C12.5 40.9667 13.2 41.6667 14.0625 41.6667Z" fill="#CE6439"/>
<path d="M32.2916 38.5417H28.6458C27.7833 38.5417 27.0833 39.2417 27.0833 40.1042C27.0833 40.9667 27.7833 41.6667 28.6458 41.6667H32.2916C35.1625 41.6667 37.5 39.3292 37.5 36.4583C37.5 33.5875 35.1625 31.25 32.2916 31.25H30.2083V28.125H35.9375C36.8 28.125 37.5 27.425 37.5 26.5625C37.5 25.7 36.8 25 35.9375 25H28.6458C27.7833 25 27.0833 25.7 27.0833 26.5625V32.8125C27.0833 33.675 27.7833 34.375 28.6458 34.375H32.2916C33.4396 34.375 34.375 35.3104 34.375 36.4583C34.375 37.6062 33.4396 38.5417 32.2916 38.5417Z" fill="#CE6439"/>
<path d="M43.75 6.25H41.6667V2.08333C41.6667 0.933333 40.7333 0 39.5833 0H37.5C36.35 0 35.4167 0.933333 35.4167 2.08333V6.25H14.5833V2.08333C14.5833 0.933333 13.65 0 12.5 0H10.4167C9.26667 0 8.33333 0.933333 8.33333 2.08333V6.25H6.25C2.80417 6.25 0 9.05417 0 12.5V43.75C0 47.1958 2.80417 50 6.25 50H43.75C47.1958 50 50 47.1958 50 43.75V12.5C50 9.05417 47.1958 6.25 43.75 6.25ZM45.8333 43.75C45.8333 44.8979 44.8979 45.8333 43.75 45.8333H6.25C5.10208 45.8333 4.16667 44.8979 4.16667 43.75V20.9167H45.8333V43.75Z" fill="#CE6439"/>
</svg>
