<svg width="50" height="50" viewBox="0 0 50 50" fill="none" xmlns="http://www.w3.org/2000/svg">
<path d="M34.8075 14.1423C34.9704 13.6738 35.1028 13.2054 35.1843 12.7369C36.6508 3.91763 32.3124 3.61211 32.3124 3.61211C32.3124 3.61211 31.5894 2.2271 29.6952 1.17815C28.4222 0.424538 26.6502 -0.155946 24.318 0.0375486C23.5644 0.0782844 22.8516 0.22086 22.1794 0.444906C21.324 0.730057 20.5398 1.15778 19.8269 1.64661C18.9511 2.19654 18.1262 2.87887 17.4032 3.65285C16.2524 4.824 15.2238 6.35159 14.7859 8.24581C14.4091 9.66137 14.5007 11.138 14.8063 12.7369C14.8877 13.2054 15.0099 13.6637 15.1831 14.1423C14.3174 14.0608 13.2889 14.5599 14.2563 17.9715C14.9488 20.4665 15.6006 21.159 16.0996 21.1998C16.5579 24.1633 18.8391 27.9314 22.597 29.2553C24.1347 29.795 25.8253 29.795 27.363 29.2451C31.0598 27.911 33.4225 24.1531 33.8808 21.1998C34.3798 21.159 35.0315 20.4564 35.7342 17.9715C36.7017 14.5599 35.6731 14.0608 34.8075 14.1423Z" fill="#CE6439"/>
<path d="M42.068 32.7788C36.7825 31.4345 32.4849 28.4099 32.4849 28.4099L28.503 41.0075L28.4928 40.9769L27.9429 42.6674L26.1709 37.6468C30.5194 31.5771 25.295 31.6382 24.9997 31.6484C24.7044 31.6382 19.48 31.5771 23.8286 37.6468L22.0566 42.6674L21.5066 40.9769L21.4964 41.0075L17.5145 28.4099C17.5145 28.4099 13.2169 31.4345 7.93143 32.7788C3.99024 33.7768 3.79675 38.3291 3.95969 40.5899C3.93932 40.5899 4.17355 43.6451 4.3976 44.9894C4.3976 44.9894 12.0967 49.9897 24.9895 49.9999C37.8824 49.9999 45.5815 44.9894 45.5815 44.9894C45.8157 43.6451 46.0397 40.5899 46.0397 40.5899C46.2027 38.3393 46.0092 33.787 42.068 32.7788Z" fill="#CE6439"/>
</svg>
