<svg width="50" height="50" viewBox="0 0 50 50" fill="none" xmlns="http://www.w3.org/2000/svg">
<path d="M39.0281 22.1882C33.8325 22.1882 29.8594 24.3887 29.8594 30.4401V39.1198C29.8594 45.1712 33.8325 47.3717 39.0281 47.3717C44.1625 47.3717 48.1968 45.1712 48.1968 39.1198V30.4401C48.1968 24.3887 44.1625 22.1882 39.0281 22.1882ZM42.0843 39.1199C42.0843 41.1369 40.923 42.0538 39.0282 42.0538C37.1333 42.0538 36.0331 41.1369 36.0331 39.1199V30.4402C36.0331 28.423 37.1333 27.5062 39.0282 27.5062C40.923 27.5062 42.0843 28.4231 42.0843 30.4402V39.1199Z" fill="#CE6439"/>
<path d="M35.4829 0C34.3827 0 33.4046 0.488966 32.9157 1.52813L11.4608 45.599C11.2774 45.9658 11.1552 46.3937 11.1552 46.7603C11.1552 48.2885 12.4999 50 14.5782 50C15.7396 50 16.901 49.3888 17.3288 48.4719L38.8448 4.40099C39.0281 4.03419 39.0891 3.60635 39.0891 3.23956C39.0891 1.2836 37.1943 0 35.4829 0Z" fill="#CE6439"/>
<path d="M10.9716 2.50593C5.77603 2.50593 1.80298 4.70642 1.80298 10.7578V19.4375C1.80298 25.4889 5.77613 27.6894 10.9716 27.6894C16.1061 27.6894 20.1403 25.4888 20.1403 19.4375V10.7578C20.1404 4.70642 16.1062 2.50593 10.9716 2.50593ZM14.028 19.4376C14.028 21.4548 12.8667 22.3715 10.9718 22.3715C9.07702 22.3715 7.97672 21.4546 7.97672 19.4376V10.7579C7.97672 8.7407 9.07702 7.8239 10.9718 7.8239C12.8667 7.8239 14.028 8.7408 14.028 10.7579V19.4376Z" fill="#CE6439"/>
</svg>
