<svg width="50" height="50" viewBox="0 0 50 50" fill="none" xmlns="http://www.w3.org/2000/svg">
<path d="M47.5594 29.3693L49.1219 28.6857C49.8631 28.3615 50.2011 27.4977 49.8768 26.7566C49.5525 26.0154 48.6887 25.6772 47.9477 26.0017L46.3852 26.6853C45.644 27.0095 45.306 27.8733 45.6303 28.6144C45.9548 29.3561 46.819 29.6934 47.5594 29.3693Z" fill="#CE6439"/>
<path d="M49.1219 39.0875L47.5594 38.4039C46.8183 38.0797 45.9545 38.4176 45.6303 39.1588C45.306 39.9 45.644 40.7637 46.3852 41.0879L47.9477 41.7715C48.6888 42.0958 49.5526 41.7577 49.8768 41.0166C50.2011 40.2754 49.8631 39.4117 49.1219 39.0875Z" fill="#CE6439"/>
<path d="M48.5348 32.4216H46.9723C46.1633 32.4216 45.5075 33.0775 45.5075 33.8865C45.5075 34.6955 46.1633 35.3513 46.9723 35.3513H48.5348C49.3438 35.3513 49.9997 34.6955 49.9997 33.8865C49.9997 33.0775 49.3438 32.4216 48.5348 32.4216Z" fill="#CE6439"/>
<path d="M28.2674 25.0977C40.0637 19.2477 39.2746 19.6289 39.5505 19.5255V5.85958C39.5505 3.43675 37.5788 1.46509 35.156 1.46509H4.3945C1.97166 1.46509 0 3.43675 0 5.85958V29.3946C0 31.8174 1.97166 33.7891 4.3945 33.7891H14.746V31.4453C14.746 27.9454 17.5936 25.0977 21.0936 25.0977H28.2674ZM14.571 24.7965C13.5991 25.2826 12.4511 24.5741 12.4511 23.4863V11.7676C12.4511 10.679 13.5992 9.97156 14.571 10.4574L26.2896 16.3167C27.368 16.8559 27.3671 18.3985 26.2896 18.9371L14.571 24.7965Z" fill="#CE6439"/>
<path d="M15.3807 21.1161L22.3592 17.627L15.3807 14.1377V21.1161Z" fill="#CE6439"/>
<path d="M21.0936 28.0272C19.209 28.0272 17.6757 29.5605 17.6757 31.4452V36.328C17.6757 37.9588 18.8241 39.3257 20.3546 39.6645L19.1604 46.8293C19.0116 47.7219 19.7011 48.535 20.6054 48.535H26.4647C27.1747 48.535 27.7826 48.0257 27.907 47.3265L29.2302 39.8832L29.3944 39.9646V27.8086L28.9534 28.0272H21.0936Z" fill="#CE6439"/>
<path d="M40.4622 22.3204L32.3239 26.356V41.4173L40.4622 45.4528C41.4323 45.9339 42.5778 45.2276 42.5778 44.1405V23.6328C42.5778 22.5465 41.4339 21.8385 40.4622 22.3204Z" fill="#CE6439"/>
</svg>
