<svg width="50" height="50" viewBox="0 0 50 50" fill="none" xmlns="http://www.w3.org/2000/svg">
<g clip-path="url(#clip0)">
<path d="M38.1836 48.4375C38.1836 46.0104 36.2161 44.043 33.7891 44.043H16.2109C13.7839 44.043 11.8164 46.0104 11.8164 48.4375V50H38.1836V48.4375Z" fill="#CE6439"/>
<path d="M47.0703 11.8164V8.88672H29.1247C28.6821 7.6457 27.7059 6.66943 26.4648 6.22686V0H23.5352V6.22686C22.2941 6.66943 21.3179 7.6457 20.8753 8.88672H2.92969V11.8164H6.59219L0 27.9297C0 31.9681 3.28584 35.2539 7.32422 35.2539H10.2539C14.2923 35.2539 17.5781 31.9681 17.5781 27.9297L10.9562 11.8164H20.8754C21.318 13.0574 22.2942 14.0337 23.5353 14.4763V35.4145C20.6725 36.0003 18.4078 38.2494 17.8241 41.1133H32.1761C31.5924 38.2494 29.3277 36.0003 26.4649 35.4145V14.4763C27.706 14.0337 28.6822 13.0574 29.1248 11.8164H39.0142L32.4219 27.9297C32.4219 31.9681 35.7077 35.2539 39.7461 35.2539H42.6758C46.7142 35.2539 50 31.9681 50 27.9297L43.378 11.8164H47.0703ZM13.9156 26.4648H3.6625L8.78906 14.1596L13.9156 26.4648ZM46.3375 26.4648H36.0844L41.2109 14.1596L46.3375 26.4648Z" fill="#CE6439"/>
</g>
<defs>
<clipPath id="clip0">
<rect width="50" height="50" fill="white"/>
</clipPath>
</defs>
</svg>
