<svg width="84" height="85" viewBox="0 0 84 85" fill="none" xmlns="http://www.w3.org/2000/svg">
<path d="M2 42.5C2 20.4086 19.9086 2.5 42 2.5V2.5C64.0914 2.5 82 20.4086 82 42.5V42.5C82 64.5914 64.0914 82.5 42 82.5V82.5C19.9086 82.5 2 64.5914 2 42.5V42.5Z" fill="#CE6439"/>
<g clip-path="url(#clip0)">
<path d="M47.7895 32.2529C45.6216 27.8264 41.0869 24.8999 36.0003 24.8999C28.7219 24.8999 22.8006 30.7876 22.8006 38.0246C22.8006 39.9913 23.2228 41.8764 24.0562 43.634L22.8224 49.8037C22.6654 50.5891 23.3582 51.2833 24.1437 51.1279L30.3895 49.8931C31.2305 50.292 32.1004 50.5954 32.9943 50.8044C30.9906 41.314 38.1841 32.4057 47.7895 32.2529Z" fill="white"/>
<path d="M59.9441 53.2338C60.1596 52.7792 60.347 52.3161 60.5074 51.8453H60.4662C63.2748 43.6017 57.3684 34.9376 48.649 34.5157C48.6491 34.5162 48.6488 34.5153 48.649 34.5157C41.1464 34.17 34.9128 40.1757 34.9128 47.6244C34.9128 54.8553 40.7898 60.7384 48.0182 60.7489C49.9789 60.7462 51.8582 60.3241 53.6107 59.4929C60.4511 60.8452 59.9176 60.7491 60.0747 60.7491C60.7856 60.7491 61.3167 60.0976 61.1779 59.4035L59.9441 53.2338Z" fill="white"/>
</g>
<path d="M42 80.5C21.0132 80.5 4 63.4868 4 42.5H0C0 65.696 18.804 84.5 42 84.5V80.5ZM80 42.5C80 63.4868 62.9868 80.5 42 80.5V84.5C65.196 84.5 84 65.696 84 42.5H80ZM42 4.5C62.9868 4.5 80 21.5132 80 42.5H84C84 19.304 65.196 0.5 42 0.5V4.5ZM42 0.5C18.804 0.5 0 19.304 0 42.5H4C4 21.5132 21.0132 4.5 42 4.5V0.5Z" fill="#CE6439" fill-opacity="0.5"/>
<defs>
<clipPath id="clip0">
<rect width="38.4" height="38.4" fill="white" transform="translate(22.8 23.2998)"/>
</clipPath>
</defs>
</svg>
