<svg width="84" height="84" viewBox="0 0 84 84" fill="none" xmlns="http://www.w3.org/2000/svg">
<path d="M2 42C2 19.9086 19.9086 2 42 2V2C64.0914 2 82 19.9086 82 42V42C82 64.0914 64.0914 82 42 82V82C19.9086 82 2 64.0914 2 42V42Z" fill="#CE6439"/>
<g clip-path="url(#clip0)">
<path d="M52.125 60C52.125 58.136 50.614 56.625 48.75 56.625H35.25C33.386 56.625 31.875 58.136 31.875 60V61.2H52.125V60Z" fill="white"/>
<path d="M58.95 31.8748V29.6248H45.1678C44.8279 28.6717 44.0781 27.9219 43.125 27.582V22.7998H40.875V27.582C39.9219 27.9219 39.1721 28.6717 38.8322 29.6248H25.05V31.8748H27.8628L22.8 44.2498C22.8 47.3513 25.3235 49.8748 28.425 49.8748H30.675C33.7765 49.8748 36.3 47.3513 36.3 44.2498L31.2143 31.8748H38.8323C39.1722 32.8279 39.922 33.5777 40.8751 33.9176V49.9981C38.6765 50.448 36.9372 52.1754 36.4889 54.3748H47.5112C47.063 52.1754 45.3237 50.448 43.1251 49.9981V33.9176C44.0782 33.5777 44.828 32.8279 45.1679 31.8748H52.7629L47.7 44.2498C47.7 47.3513 50.2235 49.8748 53.325 49.8748H55.575C58.6765 49.8748 61.2 47.3513 61.2 44.2498L56.1143 31.8748H58.95ZM33.4872 43.1248H25.6128L29.55 33.6744L33.4872 43.1248ZM58.3872 43.1248H50.5128L54.45 33.6744L58.3872 43.1248Z" fill="white"/>
</g>
<path d="M42 80C21.0132 80 4 62.9868 4 42H0C0 65.196 18.804 84 42 84V80ZM80 42C80 62.9868 62.9868 80 42 80V84C65.196 84 84 65.196 84 42H80ZM42 4C62.9868 4 80 21.0132 80 42H84C84 18.804 65.196 0 42 0V4ZM42 0C18.804 0 0 18.804 0 42H4C4 21.0132 21.0132 4 42 4V0Z" fill="#CE6439" fill-opacity="0.5"/>
<defs>
<clipPath id="clip0">
<rect width="38.4" height="38.4" fill="white" transform="translate(22.8 22.7998)"/>
</clipPath>
</defs>
</svg>
