<svg width="84" height="84" viewBox="0 0 84 84" fill="none" xmlns="http://www.w3.org/2000/svg">
<path d="M2 42C2 19.9086 19.9086 2 42 2V2C64.0914 2 82 19.9086 82 42V42C82 64.0914 64.0914 82 42 82V82C19.9086 82 2 64.0914 2 42V42Z" fill="#CE6439"/>
<g clip-path="url(#clip0)">
<path d="M50.8521 40.9312C50.3518 36.849 47.13 33.6352 43.0464 33.1453C42.6948 33.1051 42.3413 33.085 41.9874 33.085C38.3785 33.0905 35.1291 35.2715 33.7567 38.6092C32.3844 41.947 33.16 45.7829 35.7212 48.3253C37.0832 49.6297 37.8632 51.4271 37.8855 53.3128V54.3428H46.114V53.3075C46.1202 51.4575 46.8729 49.6883 48.2013 48.4007C50.2079 46.4647 51.1893 43.6993 50.8521 40.9315V40.9312H50.8521Z" fill="white"/>
<path d="M41.9998 61.1996C42.8713 61.1986 43.6479 60.6495 43.9394 59.8281H40.0602C40.3516 60.6495 41.1283 61.1986 41.9998 61.1996Z" fill="white"/>
<path d="M38.5712 57.7715C38.5717 58.1501 38.8784 58.4567 39.2569 58.4573H44.7426C45.1211 58.4567 45.4278 58.1501 45.4283 57.7715V55.7144H38.5712V57.7715V57.7715Z" fill="white"/>
<path d="M42.0003 28.9713C42.7577 28.9713 43.3717 28.3572 43.3717 27.5998V24.1713C43.3717 23.4138 42.7577 22.7998 42.0003 22.7998C41.2428 22.7998 40.6288 23.4138 40.6288 24.1713V27.5998C40.6288 28.3572 41.2428 28.9713 42.0003 28.9713Z" fill="white"/>
<path d="M30.4259 32.3651C30.9686 32.8834 31.8229 32.8834 32.3656 32.3651C32.6228 32.1079 32.7674 31.759 32.7674 31.3953C32.7674 31.0315 32.6228 30.6826 32.3656 30.4255L29.9411 28.0014C29.684 27.7441 29.3351 27.5996 28.9715 27.5996C28.6078 27.5996 28.259 27.7441 28.0018 28.0014C27.7445 28.2585 27.6 28.6073 27.6 28.9711C27.6 29.3348 27.7445 29.6836 28.0018 29.9407L30.4259 32.3651Z" fill="white"/>
<path d="M28.9715 41.9999C28.9715 41.2424 28.3574 40.6284 27.6 40.6284H24.1715C23.4143 40.6292 22.8008 41.2427 22.8 41.9999C22.8008 42.757 23.4143 43.3705 24.1715 43.3713H27.6C28.3574 43.3713 28.9715 42.7573 28.9715 41.9999Z" fill="white"/>
<path d="M31.7517 51.277C31.2777 51.1503 30.7722 51.2865 30.4259 51.6341L28.0019 54.0585C27.7446 54.3156 27.6001 54.6645 27.6001 55.0282C27.6001 55.392 27.7446 55.7407 28.0019 55.9979C28.5444 56.5162 29.3986 56.5162 29.9411 55.9979L32.3656 53.5738C32.7131 53.2275 32.8493 52.722 32.7227 52.248C32.596 51.774 32.2257 51.4037 31.7517 51.277Z" fill="white"/>
<path d="M53.5738 51.6341C53.2275 51.2865 52.722 51.1503 52.248 51.277C51.774 51.4037 51.4038 51.7739 51.2771 52.2479C51.1505 52.7219 51.2866 53.2274 51.6342 53.5736L54.0587 55.9977C54.6012 56.516 55.4554 56.516 55.998 55.9977C56.2552 55.7406 56.3997 55.3918 56.3997 55.028C56.3997 54.6643 56.2552 54.3155 55.998 54.0584L53.5738 51.6341Z" fill="white"/>
<path d="M59.8288 40.6284H56.4003C55.6428 40.6284 55.0288 41.2424 55.0288 41.9999C55.0288 42.7573 55.6428 43.3713 56.4003 43.3713H59.8288C60.5862 43.3713 61.2003 42.7573 61.2003 41.9999C61.2003 41.2424 60.5862 40.6284 59.8288 40.6284Z" fill="white"/>
<path d="M53.5741 32.3651L55.9982 29.9406C56.3446 29.5942 56.4799 29.0893 56.3531 28.6161C56.2263 28.1428 55.8567 27.7732 55.3834 27.6464C54.9102 27.5196 54.4053 27.6549 54.0588 28.0013L51.6344 30.4254C51.3771 30.6825 51.2326 31.0314 51.2326 31.3952C51.2326 31.7589 51.3771 32.1078 51.6344 32.365C52.1772 32.8834 53.0315 32.8834 53.5741 32.3651Z" fill="white"/>
</g>
<path d="M42 80C21.0132 80 4 62.9868 4 42H0C0 65.196 18.804 84 42 84V80ZM80 42C80 62.9868 62.9868 80 42 80V84C65.196 84 84 65.196 84 42H80ZM42 4C62.9868 4 80 21.0132 80 42H84C84 18.804 65.196 0 42 0V4ZM42 0C18.804 0 0 18.804 0 42H4C4 21.0132 21.0132 4 42 4V0Z" fill="#CE6439" fill-opacity="0.5"/>
<defs>
<clipPath id="clip0">
<rect width="38.4" height="38.4" fill="white" transform="translate(22.8 22.7998)"/>
</clipPath>
</defs>
</svg>
