<svg width="84" height="84" viewBox="0 0 84 84" fill="none" xmlns="http://www.w3.org/2000/svg">
<rect x="2" y="2" width="80" height="80" rx="40" fill="#CE6439"/>
<g clip-path="url(#clip0)">
<path d="M45.1866 52.0091C47.3443 52.748 49.2496 53.2187 51.987 54.0599C50.9354 67.3479 38.37 62.0708 45.1866 52.0091ZM56.4056 39.8023C56.2639 35.8125 55.5611 30.5787 49.9634 31.3988C47.3393 32.0836 45.4004 34.9655 44.4885 39.9376C43.9877 42.6714 44.2789 46.5087 44.8697 48.8089C45.4091 50.4299 45.2257 50.3303 45.8054 50.6381C48.0493 51.1436 50.2707 51.7032 52.5329 52.2738C54.831 50.6509 56.7184 42.0351 56.4056 39.8023ZM39.1305 39.4961C39.7208 37.1956 40.0121 33.3583 39.5115 30.6248C38.6003 25.6524 36.6612 22.7701 34.0366 22.0857C28.4389 21.2657 27.7361 26.4994 27.5944 30.4895C27.2816 32.7219 29.1693 41.3382 31.4676 42.9608C33.7296 42.3902 35.9507 41.8311 38.1953 41.3251C38.7743 41.0176 38.5909 41.1171 39.1305 39.4961ZM32.0127 44.7473C33.064 58.0352 45.6294 52.7581 38.8129 42.6965C36.6552 43.4355 34.7501 43.9061 32.0127 44.7473Z" fill="white"/>
</g>
<rect x="1" y="1" width="82" height="82" rx="41" stroke="#CE6439" stroke-opacity="0.5" stroke-width="2"/>
<defs>
<clipPath id="clip0">
<rect width="40" height="40" fill="white" transform="translate(22 22)"/>
</clipPath>
</defs>
</svg>
