<svg width="84" height="84" viewBox="0 0 84 84" fill="none" xmlns="http://www.w3.org/2000/svg">
<path d="M2 42C2 19.9086 19.9086 2 42 2V2C64.0914 2 82 19.9086 82 42V42C82 64.0914 64.0914 82 42 82V82C19.9086 82 2 64.0914 2 42V42Z" fill="#CE6439"/>
<g clip-path="url(#clip0)">
<path d="M58.5548 32.4121H48.3412V31.1326C48.3412 25.6839 43.1737 26.0035 43.1737 26.0035H40.7299C35.2837 26.0035 35.5648 31.171 35.5648 31.171V32.4121H25.3115C22.7055 32.4121 22.8004 34.9761 22.8004 34.9761V39.985C22.8004 39.985 33.735 43.9642 41.9205 43.9642C50.8642 43.9642 61.198 39.9465 61.198 39.9465V34.9761C61.198 32.292 58.5548 32.4121 58.5548 32.4121ZM39.013 31.0256C39.013 28.4617 42.0227 28.4221 42.0227 28.4221C45.078 28.4221 44.9843 31.0653 44.9843 31.0653V32.3485H39.013V31.0256ZM45.1765 43.0114L38.8244 43.0151V40.5665H45.1765V43.0114Z" fill="white"/>
<path d="M61.1978 54.5703V41.794C61.1978 41.794 52.8789 45.6242 41.8639 45.6242C31.7319 45.6242 22.8002 41.6738 22.8002 41.6738V54.5703C22.8002 57.1739 25.2705 57.1343 25.2705 57.1343H58.5943C61.3576 57.1355 61.1978 54.5703 61.1978 54.5703ZM45.1763 47.8145C45.1763 48.6928 44.4663 49.4041 43.5904 49.4041H40.4113C39.5342 49.4041 38.8242 48.6928 38.8242 47.8145V46.1757H45.1763V47.8145Z" fill="white"/>
</g>
<path d="M42 80C21.0132 80 4 62.9868 4 42H0C0 65.196 18.804 84 42 84V80ZM80 42C80 62.9868 62.9868 80 42 80V84C65.196 84 84 65.196 84 42H80ZM42 4C62.9868 4 80 21.0132 80 42H84C84 18.804 65.196 0 42 0V4ZM42 0C18.804 0 0 18.804 0 42H4C4 21.0132 21.0132 4 42 4V0Z" fill="#CE6439" fill-opacity="0.5"/>
<defs>
<clipPath id="clip0">
<rect width="38.4" height="38.4" fill="white" transform="translate(22.8 22.7998)"/>
</clipPath>
</defs>
</svg>
