<svg width="84" height="85" viewBox="0 0 84 85" fill="none" xmlns="http://www.w3.org/2000/svg">
<path d="M2 42.5C2 20.4086 19.9086 2.5 42 2.5V2.5C64.0914 2.5 82 20.4086 82 42.5V42.5C82 64.5914 64.0914 82.5 42 82.5V82.5C19.9086 82.5 2 64.5914 2 42.5V42.5Z" fill="#CE6439"/>
<g clip-path="url(#clip0)">
<path d="M49.5322 34.1611C49.6573 33.8013 49.759 33.4415 49.8215 33.0818C50.9478 26.3085 47.616 26.0739 47.616 26.0739C47.616 26.0739 47.0606 25.0102 45.6059 24.2046C44.6282 23.6259 43.2673 23.18 41.4763 23.3286C40.8975 23.3599 40.35 23.4694 39.8338 23.6415C39.1768 23.8605 38.5746 24.189 38.0271 24.5644C37.3545 24.9868 36.7209 25.5108 36.1656 26.1052C35.2818 27.0046 34.4919 28.1778 34.1556 29.6326C33.8662 30.7197 33.9366 31.8538 34.1712 33.0818C34.2338 33.4415 34.3276 33.7935 34.4606 34.1611C33.7958 34.0985 33.0058 34.4818 33.7489 37.1019C34.2807 39.0181 34.7813 39.55 35.1645 39.5812C35.5165 41.8572 37.2684 44.7511 40.1545 45.7679C41.3355 46.1824 42.6338 46.1824 43.8148 45.76C46.6539 44.7355 48.4685 41.8494 48.8204 39.5812C49.2037 39.55 49.7042 39.0103 50.2439 37.1019C50.9869 34.4818 50.197 34.0985 49.5322 34.1611Z" fill="white"/>
<path d="M55.1082 48.4739C51.049 47.4415 47.7484 45.1186 47.7484 45.1186L44.6903 54.7935L44.6825 54.7701L44.2601 56.0684L42.8992 52.2125C46.2389 47.551 42.2266 47.598 41.9998 47.6058C41.773 47.598 37.7607 47.551 41.1003 52.2125L39.7394 56.0684L39.3171 54.7701L39.3093 54.7935L36.2512 45.1186C36.2512 45.1186 32.9506 47.4415 28.8913 48.4739C25.8645 49.2404 25.7159 52.7365 25.841 54.4729C25.8254 54.4729 26.0053 56.8192 26.1774 57.8516C26.1774 57.8516 32.0902 61.6919 41.992 61.6997C51.8937 61.6997 57.8066 57.8516 57.8066 57.8516C57.9865 56.8192 58.1585 54.4729 58.1585 54.4729C58.2837 52.7444 58.1351 49.2482 55.1082 48.4739Z" fill="white"/>
</g>
<path d="M42 80.5C21.0132 80.5 4 63.4868 4 42.5H0C0 65.696 18.804 84.5 42 84.5V80.5ZM80 42.5C80 63.4868 62.9868 80.5 42 80.5V84.5C65.196 84.5 84 65.696 84 42.5H80ZM42 4.5C62.9868 4.5 80 21.5132 80 42.5H84C84 19.304 65.196 0.5 42 0.5V4.5ZM42 0.5C18.804 0.5 0 19.304 0 42.5H4C4 21.5132 21.0132 4.5 42 4.5V0.5Z" fill="#CE6439" fill-opacity="0.5"/>
<defs>
<clipPath id="clip0">
<rect width="38.4" height="38.4" fill="white" transform="translate(22.8 23.2998)"/>
</clipPath>
</defs>
</svg>
