<svg width="84" height="84" viewBox="0 0 84 84" fill="none" xmlns="http://www.w3.org/2000/svg">
<path d="M2 42C2 19.9086 19.9086 2 42 2V2C64.0914 2 82 19.9086 82 42V42C82 64.0914 64.0914 82 42 82V82C19.9086 82 2 64.0914 2 42V42Z" fill="#CE6439"/>
<g clip-path="url(#clip0)">
<path d="M36.2518 36.0182C39.8961 36.0182 42.8609 33.0534 42.8609 29.4091C42.8609 25.7649 39.8961 22.8 36.2518 22.8C32.6076 22.8 29.6428 25.7649 29.6428 29.4091C29.6428 33.0534 32.6076 36.0182 36.2518 36.0182V36.0182Z" fill="white"/>
<path d="M47.0074 41.8323C46.1074 38.886 43.5911 36.6389 40.4965 36.1284L37.3786 40.5674V50.2936H35.1244V40.5675L32.0064 36.1284C28.1161 36.7702 25.1391 40.1567 25.1391 44.2261V58.7342H41.0438C39.7915 56.9451 39.0555 54.7693 39.0555 52.4245C39.0555 47.4105 42.4186 43.1678 47.0074 41.8323V41.8323ZM32.5282 46.0507H30.0314V43.5538H32.5282V46.0507Z" fill="white"/>
<path d="M50.0851 43.6489C49.1348 43.6489 48.2195 43.8014 47.3618 44.082C43.8521 45.2305 41.3094 48.536 41.3094 52.4245C41.3094 54.899 42.3393 57.1373 43.9926 58.7342C45.5721 60.2599 47.7207 61.2001 50.0851 61.2001C54.9239 61.2001 58.8607 57.2634 58.8607 52.4245C58.8607 47.5856 54.924 43.6489 50.0851 43.6489V43.6489ZM49.1475 56.1697L47.3637 54.3858L45.9232 52.9453L47.3637 51.5049L47.5171 51.3514L49.1475 52.9819L52.6531 49.4764L54.247 51.0703L49.1475 56.1697Z" fill="white"/>
</g>
<path d="M42 80C21.0132 80 4 62.9868 4 42H0C0 65.196 18.804 84 42 84V80ZM80 42C80 62.9868 62.9868 80 42 80V84C65.196 84 84 65.196 84 42H80ZM42 4C62.9868 4 80 21.0132 80 42H84C84 18.804 65.196 0 42 0V4ZM42 0C18.804 0 0 18.804 0 42H4C4 21.0132 21.0132 4 42 4V0Z" fill="#CE6439" fill-opacity="0.5"/>
<defs>
<clipPath id="clip0">
<rect width="38.4" height="38.4" fill="white" transform="translate(22.8 22.8)"/>
</clipPath>
</defs>
</svg>
