<svg width="84" height="84" viewBox="0 0 84 84" fill="none" xmlns="http://www.w3.org/2000/svg">
<path d="M2 42C2 19.9086 19.9086 2 42 2C64.0914 2 82 19.9086 82 42C82 64.0914 64.0914 82 42 82C19.9086 82 2 64.0914 2 42Z" fill="#CE6439"/>
<g clip-path="url(#clip0)">
<path d="M42 61.2C44.4853 61.2 46.5 59.1852 46.5 56.7C46.5 54.2147 44.4853 52.2 42 52.2C39.5147 52.2 37.5 54.2147 37.5 56.7C37.5 59.1852 39.5147 61.2 42 61.2Z" fill="white"/>
<path d="M42 22.8C35.5486 22.8 30.3 28.0486 30.3 34.5V35.625H39.3V34.5C39.3 33.0112 40.5112 31.8 42 31.8C43.4888 31.8 44.7 33.0112 44.7 34.5C44.7 35.2934 44.3518 36.0443 43.7445 36.5604L37.5 41.8694V49.9501H46.5V46.0307L49.5732 43.4179C52.1958 41.1894 53.7 37.939 53.7 34.5C53.7 28.0486 48.4514 22.8 42 22.8V22.8Z" fill="white"/>
</g>
<path d="M42 80C21.0132 80 4 62.9868 4 42H0C0 65.196 18.804 84 42 84V80ZM80 42C80 62.9868 62.9868 80 42 80V84C65.196 84 84 65.196 84 42H80ZM42 4C62.9868 4 80 21.0132 80 42H84C84 18.804 65.196 0 42 0V4ZM42 0C18.804 0 0 18.804 0 42H4C4 21.0132 21.0132 4 42 4V0Z" fill="#CE6439" fill-opacity="0.5"/>
<defs>
<clipPath id="clip0">
<rect width="38.4" height="38.4" fill="white" transform="translate(22.8 22.8)"/>
</clipPath>
</defs>
</svg>
