<svg width="534" height="60" viewBox="0 0 534 60" fill="none" xmlns="http://www.w3.org/2000/svg">
<path fill-rule="evenodd" clip-rule="evenodd" d="M24 60C37.2548 60 48 46.5685 48 30C48 13.4315 37.2548 0 24 0C10.7452 0 0 13.4315 0 30C0 46.5685 10.7452 60 24 60ZM24 58.5C36.3712 58.5 46.4 45.7401 46.4 30C46.4 14.2599 36.3712 1.49998 24 1.49998C11.6288 1.49998 1.60002 14.2599 1.60002 30C1.60002 45.7401 11.6288 58.5 24 58.5Z" fill="white"/>
<path d="M9.56532 23.2328C8.80926 20.0436 9.70901 18.1309 12.7509 16.5363C15.5961 15.0457 18.7353 14.4768 21.954 14.2811C26.4108 14.0119 30.7968 14.3687 34.9374 16.0265C36.0206 16.4588 36.9823 17.2031 37.8909 17.9229C38.3153 18.2594 38.4833 18.8752 38.8393 19.489C35.9256 19.489 33.2484 19.489 30.6243 19.489C30.5226 19.3809 30.4364 19.334 30.432 19.2789C30.1888 16.9686 28.5861 15.9633 26.3113 15.5392C23.8795 15.0865 21.4787 15.2802 19.0757 15.684C18.8966 15.7146 18.7109 15.7574 18.5496 15.8349C17.7294 16.2325 16.529 16.4038 16.5997 17.5069C16.666 18.5367 17.6586 18.9955 18.6336 19.2789C21.0543 19.9824 23.4993 20.6166 25.9111 21.3445C29.404 22.3988 32.9411 23.3612 36.3279 24.6581C38.0766 25.329 39.7081 26.4729 41.0964 27.6882C43.3469 29.6601 43.1589 32.1784 40.8289 34.0829C40.0441 34.7252 39.0957 35.2003 38.2048 35.7631C39.9534 39.564 38.8039 42.3128 34.5284 43.9991C30.1225 45.7364 25.469 45.9913 20.758 45.6406C17.3602 45.3877 14.0442 44.8107 11.0642 43.1569C9.49679 42.2883 8.78936 41.4053 8.6302 40.1309C11.4754 40.1309 14.3117 40.1309 17.1458 40.1309C17.7714 43.0081 18.8126 44.0949 22.0248 44.3519C24.3747 44.5395 26.7822 44.3152 29.1432 44.0868C30.2021 43.9848 31.4556 43.524 31.5617 42.3311C31.67 41.1178 30.4232 40.7345 29.4372 40.4429C25.6569 39.3234 21.8236 38.3548 18.0588 37.1946C15.3087 36.3463 12.6315 35.2982 9.9345 34.3113C9.42825 34.1257 8.97064 33.8198 8.50419 33.5486C3.97448 30.9304 4.9295 25.9468 8.49976 23.8465C8.838 23.6508 9.17845 23.455 9.56532 23.2328ZM37.3581 35.3267C30.4563 35.3267 23.6209 35.3267 16.7257 35.3267C19.9556 39.4111 33.9647 39.4927 37.3581 35.3267ZM7.16672 31.7848C11.0818 36.228 25.2214 35.7183 27.8168 31.7848C20.9725 31.7848 14.1525 31.7848 7.16672 31.7848ZM10.0848 23.9974C9.82397 25.3616 10.3192 26.1507 11.3692 26.5688C12.8836 27.1723 14.4134 27.7596 15.9874 28.2082C23.223 30.2718 30.7349 31.5748 37.5305 34.8741C37.6344 33.9218 37.2277 33.1755 36.266 32.7391C35.4105 32.3517 34.5483 31.9479 33.6419 31.691C27.8477 30.0516 22.0424 28.4447 16.235 26.8379C14.0729 26.2405 11.7804 25.9122 10.0848 23.9974Z" fill="white"/>
<path d="M84.1611 17.8428C84.0173 19.8317 83.2809 21.3975 81.9521 22.54C80.6318 23.6826 78.8883 24.2539 76.7217 24.2539C74.3519 24.2539 72.4857 23.4583 71.123 21.8672C69.7689 20.2676 69.0918 18.0755 69.0918 15.291V14.1611C69.0918 12.3838 69.4049 10.818 70.0312 9.46387C70.6576 8.1097 71.5505 7.07292 72.71 6.35352C73.8779 5.62565 75.2321 5.26172 76.7725 5.26172C78.9053 5.26172 80.6234 5.83301 81.9268 6.97559C83.2301 8.11816 83.9834 9.72201 84.1865 11.7871H80.3779C80.2848 10.5938 79.9505 9.73047 79.375 9.19727C78.8079 8.6556 77.9404 8.38477 76.7725 8.38477C75.5029 8.38477 74.5508 8.8418 73.916 9.75586C73.2897 10.6615 72.9681 12.0706 72.9512 13.9834V15.3799C72.9512 17.3773 73.2516 18.8372 73.8525 19.7598C74.4619 20.6823 75.4183 21.1436 76.7217 21.1436C77.8981 21.1436 78.7741 20.877 79.3496 20.3438C79.9336 19.8021 80.2679 18.9684 80.3525 17.8428H84.1611ZM94.3809 24C94.2116 23.6699 94.0889 23.2594 94.0127 22.7686C93.124 23.7588 91.9688 24.2539 90.5469 24.2539C89.2012 24.2539 88.084 23.8646 87.1953 23.0859C86.3151 22.3073 85.875 21.3255 85.875 20.1406C85.875 18.6849 86.4124 17.5677 87.4873 16.7891C88.5706 16.0104 90.1322 15.6169 92.1719 15.6084H93.8604V14.8213C93.8604 14.1865 93.6953 13.6787 93.3652 13.2979C93.0436 12.917 92.5316 12.7266 91.8291 12.7266C91.2113 12.7266 90.7246 12.8747 90.3691 13.1709C90.0221 13.4671 89.8486 13.8734 89.8486 14.3896H86.1797C86.1797 13.5941 86.4251 12.8577 86.916 12.1807C87.4069 11.5036 88.1009 10.9746 88.998 10.5938C89.8952 10.2044 90.9023 10.0098 92.0195 10.0098C93.7122 10.0098 95.0537 10.4372 96.0439 11.292C97.0426 12.1383 97.542 13.3317 97.542 14.8721V20.8262C97.5505 22.1296 97.7324 23.1156 98.0879 23.7842V24H94.3809ZM91.3467 21.4482C91.8883 21.4482 92.3877 21.3298 92.8447 21.0928C93.3018 20.8473 93.6403 20.5215 93.8604 20.1152V17.7539H92.4893C90.6527 17.7539 89.6751 18.3887 89.5566 19.6582L89.5439 19.874C89.5439 20.3311 89.7048 20.7077 90.0264 21.0039C90.348 21.3001 90.7881 21.4482 91.3467 21.4482ZM112.269 24H108.587V18.7188H104.029V24H100.36V10.2637H104.029V15.7734H108.587V10.2637H112.269V24ZM120.495 18.9346H119.022V24H115.354V10.2637H119.022V15.4307H120.33L123.326 10.2637H127.96L123.466 16.8018L128.379 24H123.491L120.495 18.9346ZM141.163 13.209H136.758V24H133.076V13.209H128.747V10.2637H141.163V13.209ZM150.151 17.5635H143.004V14.6055H150.151V17.5635ZM168.395 24H164.573V8.60059H157.172V24H153.363V5.51562H168.395V24ZM177.827 24.2539C175.813 24.2539 174.171 23.6361 172.901 22.4004C171.64 21.1647 171.01 19.5186 171.01 17.4619V17.1064C171.01 15.7269 171.276 14.4954 171.81 13.4121C172.343 12.3203 173.096 11.4824 174.069 10.8984C175.051 10.306 176.168 10.0098 177.421 10.0098C179.3 10.0098 180.777 10.6022 181.852 11.7871C182.935 12.972 183.477 14.652 183.477 16.8271V18.3252H174.729C174.848 19.2223 175.203 19.9417 175.796 20.4834C176.397 21.0251 177.154 21.2959 178.068 21.2959C179.482 21.2959 180.586 20.7839 181.382 19.7598L183.185 21.7783C182.634 22.557 181.89 23.1663 180.95 23.6064C180.011 24.0381 178.97 24.2539 177.827 24.2539ZM177.408 12.9805C176.68 12.9805 176.088 13.2259 175.631 13.7168C175.182 14.2077 174.895 14.9102 174.768 15.8242H179.871V15.5322C179.854 14.7197 179.634 14.0934 179.211 13.6533C178.788 13.2048 178.187 12.9805 177.408 12.9805ZM196.819 13.209H192.414V24H188.732V13.209H184.403V10.2637H196.819V13.209ZM204.183 24.2539C202.168 24.2539 200.526 23.6361 199.257 22.4004C197.996 21.1647 197.365 19.5186 197.365 17.4619V17.1064C197.365 15.7269 197.632 14.4954 198.165 13.4121C198.698 12.3203 199.451 11.4824 200.425 10.8984C201.407 10.306 202.524 10.0098 203.776 10.0098C205.655 10.0098 207.132 10.6022 208.207 11.7871C209.29 12.972 209.832 14.652 209.832 16.8271V18.3252H201.085C201.203 19.2223 201.559 19.9417 202.151 20.4834C202.752 21.0251 203.51 21.2959 204.424 21.2959C205.837 21.2959 206.942 20.7839 207.737 19.7598L209.54 21.7783C208.99 22.557 208.245 23.1663 207.306 23.6064C206.366 24.0381 205.325 24.2539 204.183 24.2539ZM203.764 12.9805C203.036 12.9805 202.443 13.2259 201.986 13.7168C201.538 14.2077 201.25 14.9102 201.123 15.8242H206.227V15.5322C206.21 14.7197 205.99 14.0934 205.566 13.6533C205.143 13.2048 204.542 12.9805 203.764 12.9805ZM224.292 17.2588C224.292 19.3747 223.81 21.0716 222.845 22.3496C221.888 23.6191 220.593 24.2539 218.96 24.2539C217.572 24.2539 216.451 23.7715 215.596 22.8066V29.2812H211.927V10.2637H215.329L215.456 11.6094C216.345 10.543 217.504 10.0098 218.935 10.0098C220.627 10.0098 221.943 10.6361 222.883 11.8887C223.822 13.1413 224.292 14.8678 224.292 17.0684V17.2588ZM220.623 16.9922C220.623 15.7142 220.395 14.7282 219.938 14.0342C219.489 13.3402 218.833 12.9932 217.97 12.9932C216.819 12.9932 216.027 13.4333 215.596 14.3135V19.9375C216.044 20.8431 216.844 21.2959 217.995 21.2959C219.747 21.2959 220.623 19.8613 220.623 16.9922ZM233.395 11.0254C235.155 11.0254 236.56 11.6094 237.609 12.7773C238.659 13.9453 239.184 15.5322 239.184 17.5381V17.7158C239.184 19.6963 238.6 21.2832 237.432 22.4766C236.264 23.6699 234.694 24.2666 232.722 24.2666C230.741 24.2666 229.163 23.6234 227.986 22.3369C226.818 21.042 226.234 19.2858 226.234 17.0684V16.459C226.251 13.3698 226.772 10.9535 227.796 9.20996C228.828 7.45801 230.377 6.35352 232.442 5.89648C233.526 5.65951 234.224 5.42676 234.537 5.19824C234.85 4.96126 235.007 4.63542 235.007 4.2207H237.978C237.978 5.54948 237.618 6.54818 236.898 7.2168C236.188 7.88542 234.918 8.40169 233.09 8.76562C232.007 8.98568 231.152 9.41309 230.525 10.0479C229.899 10.6826 229.476 11.5755 229.256 12.7266C230.424 11.5924 231.803 11.0254 233.395 11.0254ZM232.696 13.9961C231.825 13.9961 231.139 14.2881 230.64 14.8721C230.149 15.4561 229.903 16.404 229.903 17.7158C229.903 18.8838 230.145 19.7767 230.627 20.3945C231.109 21.0039 231.808 21.3086 232.722 21.3086C233.61 21.3086 234.296 21.0081 234.778 20.4072C235.261 19.8063 235.506 18.9219 235.515 17.7539V17.4492C235.515 16.3236 235.265 15.4688 234.766 14.8848C234.275 14.2923 233.585 13.9961 232.696 13.9961ZM246.509 18.8076L249.048 10.2637H252.983L247.461 26.1328L247.156 26.8564C246.335 28.6507 244.981 29.5479 243.094 29.5479C242.561 29.5479 242.019 29.4674 241.469 29.3066V26.5264L242.027 26.5391C242.721 26.5391 243.238 26.4333 243.576 26.2217C243.923 26.0101 244.194 25.6589 244.389 25.168L244.82 24.0381L240.009 10.2637H243.957L246.509 18.8076ZM266.796 17.2588C266.796 19.3747 266.313 21.0716 265.349 22.3496C264.392 23.6191 263.097 24.2539 261.464 24.2539C260.076 24.2539 258.954 23.7715 258.1 22.8066V29.2812H254.431V10.2637H257.833L257.96 11.6094C258.849 10.543 260.008 10.0098 261.438 10.0098C263.131 10.0098 264.447 10.6361 265.387 11.8887C266.326 13.1413 266.796 14.8678 266.796 17.0684V17.2588ZM263.127 16.9922C263.127 15.7142 262.898 14.7282 262.441 14.0342C261.993 13.3402 261.337 12.9932 260.474 12.9932C259.323 12.9932 258.531 13.4333 258.1 14.3135V19.9375C258.548 20.8431 259.348 21.2959 260.499 21.2959C262.251 21.2959 263.127 19.8613 263.127 16.9922ZM278.438 13.2344H272.75V24H269.081V10.2637H278.438V13.2344ZM285.433 21.2959C286.11 21.2959 286.66 21.1097 287.083 20.7373C287.506 20.3649 287.726 19.8698 287.743 19.252H291.184C291.175 20.1829 290.921 21.0378 290.422 21.8164C289.923 22.5866 289.237 23.1875 288.365 23.6191C287.502 24.0423 286.546 24.2539 285.496 24.2539C283.533 24.2539 281.984 23.6318 280.85 22.3877C279.715 21.1351 279.148 19.4085 279.148 17.208V16.9668C279.148 14.8509 279.711 13.1624 280.837 11.9014C281.963 10.6403 283.507 10.0098 285.471 10.0098C287.189 10.0098 288.564 10.5007 289.597 11.4824C290.638 12.4557 291.167 13.7549 291.184 15.3799H287.743C287.726 14.6689 287.506 14.0934 287.083 13.6533C286.66 13.2048 286.101 12.9805 285.407 12.9805C284.552 12.9805 283.905 13.2936 283.465 13.9199C283.033 14.5378 282.817 15.5449 282.817 16.9414V17.3223C282.817 18.7357 283.033 19.7513 283.465 20.3691C283.896 20.987 284.552 21.2959 285.433 21.2959ZM298.661 18.9346H297.188V24H293.52V10.2637H297.188V15.4307H298.496L301.492 10.2637H306.126L301.632 16.8018L306.545 24H301.657L298.661 18.9346ZM315.889 24C315.719 23.6699 315.597 23.2594 315.521 22.7686C314.632 23.7588 313.477 24.2539 312.055 24.2539C310.709 24.2539 309.592 23.8646 308.703 23.0859C307.823 22.3073 307.383 21.3255 307.383 20.1406C307.383 18.6849 307.92 17.5677 308.995 16.7891C310.078 16.0104 311.64 15.6169 313.68 15.6084H315.368V14.8213C315.368 14.1865 315.203 13.6787 314.873 13.2979C314.551 12.917 314.039 12.7266 313.337 12.7266C312.719 12.7266 312.232 12.8747 311.877 13.1709C311.53 13.4671 311.356 13.8734 311.356 14.3896H307.688C307.688 13.5941 307.933 12.8577 308.424 12.1807C308.915 11.5036 309.609 10.9746 310.506 10.5938C311.403 10.2044 312.41 10.0098 313.527 10.0098C315.22 10.0098 316.562 10.4372 317.552 11.292C318.55 12.1383 319.05 13.3317 319.05 14.8721V20.8262C319.058 22.1296 319.24 23.1156 319.596 23.7842V24H315.889ZM312.854 21.4482C313.396 21.4482 313.896 21.3298 314.353 21.0928C314.81 20.8473 315.148 20.5215 315.368 20.1152V17.7539H313.997C312.16 17.7539 311.183 18.3887 311.064 19.6582L311.052 19.874C311.052 20.3311 311.213 20.7077 311.534 21.0039C311.856 21.3001 312.296 21.4482 312.854 21.4482ZM333.319 10.2637V24H329.663V19.252H327.34L324.699 24H320.979L323.976 18.6299C323.155 18.249 322.52 17.7327 322.071 17.0811C321.631 16.4294 321.411 15.6888 321.411 14.8594C321.411 13.5306 321.923 12.443 322.947 11.5967C323.98 10.7419 325.359 10.2975 327.086 10.2637H333.319ZM327.149 16.6875H329.663V13.209H327.276C326.625 13.209 326.096 13.3825 325.689 13.7295C325.283 14.068 325.08 14.4827 325.08 14.9736C325.08 15.4645 325.275 15.8708 325.664 16.1924C326.053 16.514 326.549 16.679 327.149 16.6875ZM78.7656 43.2344H73.0781V54H69.4092V40.2637H78.7656V43.2344ZM79.4766 47.0049C79.4766 45.6423 79.7389 44.4277 80.2637 43.3613C80.7884 42.2949 81.5417 41.4697 82.5234 40.8857C83.5137 40.3018 84.6605 40.0098 85.9639 40.0098C87.8174 40.0098 89.3281 40.5768 90.4961 41.7109C91.6725 42.8451 92.3285 44.3854 92.4639 46.332L92.4893 47.2715C92.4893 49.3789 91.901 51.0716 90.7246 52.3496C89.5482 53.6191 87.9697 54.2539 85.9893 54.2539C84.0088 54.2539 82.4261 53.6191 81.2412 52.3496C80.0648 51.0801 79.4766 49.3535 79.4766 47.1699V47.0049ZM83.1455 47.2715C83.1455 48.5749 83.391 49.5736 83.8818 50.2676C84.3727 50.9531 85.0752 51.2959 85.9893 51.2959C86.8779 51.2959 87.5719 50.9574 88.0713 50.2803C88.5706 49.5947 88.8203 48.5029 88.8203 47.0049C88.8203 45.7269 88.5706 44.7367 88.0713 44.0342C87.5719 43.3317 86.8695 42.9805 85.9639 42.9805C85.0667 42.9805 84.3727 43.3317 83.8818 44.0342C83.391 44.7282 83.1455 45.8073 83.1455 47.2715ZM100.462 51.2959C101.139 51.2959 101.689 51.1097 102.112 50.7373C102.535 50.3649 102.756 49.8698 102.772 49.252H106.213C106.204 50.1829 105.951 51.0378 105.451 51.8164C104.952 52.5866 104.266 53.1875 103.395 53.6191C102.531 54.0423 101.575 54.2539 100.525 54.2539C98.5618 54.2539 97.013 53.6318 95.8789 52.3877C94.7448 51.1351 94.1777 49.4085 94.1777 47.208V46.9668C94.1777 44.8509 94.7406 43.1624 95.8662 41.9014C96.9919 40.6403 98.5365 40.0098 100.5 40.0098C102.218 40.0098 103.593 40.5007 104.626 41.4824C105.667 42.4557 106.196 43.7549 106.213 45.3799H102.772C102.756 44.6689 102.535 44.0934 102.112 43.6533C101.689 43.2048 101.131 42.9805 100.437 42.9805C99.5817 42.9805 98.9342 43.2936 98.4941 43.9199C98.0625 44.5378 97.8467 45.5449 97.8467 46.9414V47.3223C97.8467 48.7357 98.0625 49.7513 98.4941 50.3691C98.9258 50.987 99.5817 51.2959 100.462 51.2959ZM113.437 48.8076L115.976 40.2637H119.911L114.389 56.1328L114.084 56.8564C113.263 58.6507 111.909 59.5479 110.021 59.5479C109.488 59.5479 108.947 59.4674 108.396 59.3066V56.5264L108.955 56.5391C109.649 56.5391 110.165 56.4333 110.504 56.2217C110.851 56.0101 111.122 55.6589 111.316 55.168L111.748 54.0381L106.937 40.2637H110.885L113.437 48.8076ZM120.838 51.042C121.667 50.1618 122.23 49.29 122.526 48.4268C122.823 47.5635 122.988 46.3405 123.021 44.7578L123.123 40.2637H133.229V51.042H135.209V58.126H131.54V54H123.402V58.126H119.657V51.042H120.838ZM125.167 51.042H129.572V43.2979H126.716L126.69 44.9482C126.614 47.4704 126.106 49.5016 125.167 51.042ZM145.035 54C144.866 53.6699 144.743 53.2594 144.667 52.7686C143.778 53.7588 142.623 54.2539 141.201 54.2539C139.855 54.2539 138.738 53.8646 137.85 53.0859C136.969 52.3073 136.529 51.3255 136.529 50.1406C136.529 48.6849 137.067 47.5677 138.142 46.7891C139.225 46.0104 140.786 45.6169 142.826 45.6084H144.515V44.8213C144.515 44.1865 144.35 43.6787 144.02 43.2979C143.698 42.917 143.186 42.7266 142.483 42.7266C141.866 42.7266 141.379 42.8747 141.023 43.1709C140.676 43.4671 140.503 43.8734 140.503 44.3896H136.834C136.834 43.5941 137.079 42.8577 137.57 42.1807C138.061 41.5036 138.755 40.9746 139.652 40.5938C140.549 40.2044 141.557 40.0098 142.674 40.0098C144.367 40.0098 145.708 40.4372 146.698 41.292C147.697 42.1383 148.196 43.3317 148.196 44.8721V50.8262C148.205 52.1296 148.387 53.1156 148.742 53.7842V54H145.035ZM142.001 51.4482C142.543 51.4482 143.042 51.3298 143.499 51.0928C143.956 50.8473 144.295 50.5215 144.515 50.1152V47.7539H143.144C141.307 47.7539 140.329 48.3887 140.211 49.6582L140.198 49.874C140.198 50.3311 140.359 50.7077 140.681 51.0039C141.002 51.3001 141.442 51.4482 142.001 51.4482ZM163.38 47.2588C163.38 49.3747 162.897 51.0716 161.933 52.3496C160.976 53.6191 159.681 54.2539 158.048 54.2539C156.66 54.2539 155.538 53.7715 154.684 52.8066V59.2812H151.015V40.2637H154.417L154.544 41.6094C155.433 40.543 156.592 40.0098 158.022 40.0098C159.715 40.0098 161.031 40.6361 161.971 41.8887C162.91 43.1413 163.38 44.8678 163.38 47.0684V47.2588ZM159.711 46.9922C159.711 45.7142 159.482 44.7282 159.025 44.0342C158.577 43.3402 157.921 42.9932 157.058 42.9932C155.907 42.9932 155.115 43.4333 154.684 44.3135V49.9375C155.132 50.8431 155.932 51.2959 157.083 51.2959C158.835 51.2959 159.711 49.8613 159.711 46.9922ZM171.378 51.2959C172.055 51.2959 172.605 51.1097 173.028 50.7373C173.451 50.3649 173.672 49.8698 173.688 49.252H177.129C177.12 50.1829 176.867 51.0378 176.367 51.8164C175.868 52.5866 175.182 53.1875 174.311 53.6191C173.447 54.0423 172.491 54.2539 171.441 54.2539C169.478 54.2539 167.929 53.6318 166.795 52.3877C165.661 51.1351 165.094 49.4085 165.094 47.208V46.9668C165.094 44.8509 165.657 43.1624 166.782 41.9014C167.908 40.6403 169.452 40.0098 171.416 40.0098C173.134 40.0098 174.509 40.5007 175.542 41.4824C176.583 42.4557 177.112 43.7549 177.129 45.3799H173.688C173.672 44.6689 173.451 44.0934 173.028 43.6533C172.605 43.2048 172.047 42.9805 171.353 42.9805C170.498 42.9805 169.85 43.2936 169.41 43.9199C168.979 44.5378 168.763 45.5449 168.763 46.9414V47.3223C168.763 48.7357 168.979 49.7513 169.41 50.3691C169.842 50.987 170.498 51.2959 171.378 51.2959ZM190.624 43.209H186.219V54H182.537V43.209H178.208V40.2637H190.624V43.209ZM192.719 54V40.2637H198.457C200.327 40.2637 201.762 40.5938 202.761 41.2539C203.759 41.9141 204.259 42.862 204.259 44.0977C204.259 44.7324 204.047 45.3037 203.624 45.8115C203.209 46.3109 202.6 46.696 201.796 46.9668C202.778 47.153 203.548 47.5212 204.106 48.0713C204.674 48.613 204.957 49.2816 204.957 50.0771C204.957 51.3551 204.475 52.3285 203.51 52.9971C202.553 53.6657 201.161 54 199.333 54H192.719ZM196.388 48.2998V51.0674H199.346C200.641 51.0674 201.288 50.6146 201.288 49.709C201.288 48.7865 200.67 48.3167 199.435 48.2998H196.388ZM196.388 45.8369H198.66C199.947 45.82 200.59 45.4053 200.59 44.5928C200.59 44.0934 200.412 43.738 200.057 43.5264C199.71 43.3148 199.176 43.209 198.457 43.209H196.388V45.8369ZM213.526 54.2539C211.512 54.2539 209.87 53.6361 208.601 52.4004C207.34 51.1647 206.709 49.5186 206.709 47.4619V47.1064C206.709 45.7269 206.976 44.4954 207.509 43.4121C208.042 42.3203 208.795 41.4824 209.769 40.8984C210.75 40.306 211.868 40.0098 213.12 40.0098C214.999 40.0098 216.476 40.6022 217.551 41.7871C218.634 42.972 219.176 44.652 219.176 46.8271V48.3252H210.429C210.547 49.2223 210.903 49.9417 211.495 50.4834C212.096 51.0251 212.854 51.2959 213.768 51.2959C215.181 51.2959 216.285 50.7839 217.081 49.7598L218.884 51.7783C218.334 52.557 217.589 53.1663 216.649 53.6064C215.71 54.0381 214.669 54.2539 213.526 54.2539ZM213.107 42.9805C212.38 42.9805 211.787 43.2259 211.33 43.7168C210.882 44.2077 210.594 44.9102 210.467 45.8242H215.57V45.5322C215.553 44.7197 215.333 44.0934 214.91 43.6533C214.487 43.2048 213.886 42.9805 213.107 42.9805ZM233.179 54H229.497V48.7188H224.939V54H221.271V40.2637H224.939V45.7734H229.497V40.2637H233.179V54ZM247.931 54H244.249V48.7188H239.691V54H236.022V40.2637H239.691V45.7734H244.249V40.2637H247.931V54ZM258.734 54C258.565 53.6699 258.442 53.2594 258.366 52.7686C257.478 53.7588 256.322 54.2539 254.9 54.2539C253.555 54.2539 252.438 53.8646 251.549 53.0859C250.669 52.3073 250.229 51.3255 250.229 50.1406C250.229 48.6849 250.766 47.5677 251.841 46.7891C252.924 46.0104 254.486 45.6169 256.525 45.6084H258.214V44.8213C258.214 44.1865 258.049 43.6787 257.719 43.2979C257.397 42.917 256.885 42.7266 256.183 42.7266C255.565 42.7266 255.078 42.8747 254.723 43.1709C254.376 43.4671 254.202 43.8734 254.202 44.3896H250.533C250.533 43.5941 250.779 42.8577 251.27 42.1807C251.76 41.5036 252.454 40.9746 253.352 40.5938C254.249 40.2044 255.256 40.0098 256.373 40.0098C258.066 40.0098 259.407 40.4372 260.397 41.292C261.396 42.1383 261.896 43.3317 261.896 44.8721V50.8262C261.904 52.1296 262.086 53.1156 262.441 53.7842V54H258.734ZM255.7 51.4482C256.242 51.4482 256.741 51.3298 257.198 51.0928C257.655 50.8473 257.994 50.5215 258.214 50.1152V47.7539H256.843C255.006 47.7539 254.029 48.3887 253.91 49.6582L253.897 49.874C253.897 50.3311 254.058 50.7077 254.38 51.0039C254.701 51.3001 255.142 51.4482 255.7 51.4482ZM276.165 40.2637V54H272.509V49.252H270.186L267.545 54H263.825L266.821 48.6299C266 48.249 265.366 47.7327 264.917 47.0811C264.477 46.4294 264.257 45.6888 264.257 44.8594C264.257 43.5306 264.769 42.443 265.793 41.5967C266.826 40.7419 268.205 40.2975 269.932 40.2637H276.165ZM269.995 46.6875H272.509V43.209H270.122C269.47 43.209 268.941 43.3825 268.535 43.7295C268.129 44.068 267.926 44.4827 267.926 44.9736C267.926 45.4645 268.12 45.8708 268.51 46.1924C268.899 46.514 269.394 46.679 269.995 46.6875ZM291.12 48.9346H289.647V54H285.979V40.2637H289.647V45.4307H290.955L293.951 40.2637H298.585L294.091 46.8018L299.004 54H294.116L291.12 48.9346ZM299.08 47.0049C299.08 45.6423 299.342 44.4277 299.867 43.3613C300.392 42.2949 301.145 41.4697 302.127 40.8857C303.117 40.3018 304.264 40.0098 305.567 40.0098C307.421 40.0098 308.932 40.5768 310.1 41.7109C311.276 42.8451 311.932 44.3854 312.067 46.332L312.093 47.2715C312.093 49.3789 311.505 51.0716 310.328 52.3496C309.152 53.6191 307.573 54.2539 305.593 54.2539C303.612 54.2539 302.03 53.6191 300.845 52.3496C299.668 51.0801 299.08 49.3535 299.08 47.1699V47.0049ZM302.749 47.2715C302.749 48.5749 302.994 49.5736 303.485 50.2676C303.976 50.9531 304.679 51.2959 305.593 51.2959C306.481 51.2959 307.175 50.9574 307.675 50.2803C308.174 49.5947 308.424 48.5029 308.424 47.0049C308.424 45.7269 308.174 44.7367 307.675 44.0342C307.175 43.3317 306.473 42.9805 305.567 42.9805C304.67 42.9805 303.976 43.3317 303.485 44.0342C302.994 44.7282 302.749 45.8073 302.749 47.2715ZM326.096 40.2637V54H322.427V43.2344H319.189L318.961 47.4746C318.817 49.7344 318.373 51.3805 317.628 52.4131C316.883 53.4456 315.774 53.9746 314.302 54H313.058L313.02 51.0166L313.477 50.9785C314.137 50.9277 314.619 50.5384 314.924 49.8105C315.229 49.0827 315.419 47.8428 315.495 46.0908L315.749 40.2637H326.096ZM340.873 40.2637V54H337.204V43.2344H333.967L333.738 47.4746C333.594 49.7344 333.15 51.3805 332.405 52.4131C331.66 53.4456 330.552 53.9746 329.079 54H327.835L327.797 51.0166L328.254 50.9785C328.914 50.9277 329.396 50.5384 329.701 49.8105C330.006 49.0827 330.196 47.8428 330.272 46.0908L330.526 40.2637H340.873ZM350.026 54.2539C348.012 54.2539 346.37 53.6361 345.101 52.4004C343.84 51.1647 343.209 49.5186 343.209 47.4619V47.1064C343.209 45.7269 343.476 44.4954 344.009 43.4121C344.542 42.3203 345.295 41.4824 346.269 40.8984C347.25 40.306 348.368 40.0098 349.62 40.0098C351.499 40.0098 352.976 40.6022 354.051 41.7871C355.134 42.972 355.676 44.652 355.676 46.8271V48.3252H346.929C347.047 49.2223 347.403 49.9417 347.995 50.4834C348.596 51.0251 349.354 51.2959 350.268 51.2959C351.681 51.2959 352.785 50.7839 353.581 49.7598L355.384 51.7783C354.834 52.557 354.089 53.1663 353.149 53.6064C352.21 54.0381 351.169 54.2539 350.026 54.2539ZM349.607 42.9805C348.88 42.9805 348.287 43.2259 347.83 43.7168C347.382 44.2077 347.094 44.9102 346.967 45.8242H352.07V45.5322C352.053 44.7197 351.833 44.0934 351.41 43.6533C350.987 43.2048 350.386 42.9805 349.607 42.9805ZM367.127 43.2344H361.439V54H357.771V40.2637H367.127V43.2344ZM376.94 40.2637H380.609V54H376.94V45.5195L372.345 54H368.663V40.2637H372.345V48.7314L376.94 40.2637ZM394.866 40.2637V54H391.21V49.252H388.887L386.246 54H382.526L385.522 48.6299C384.701 48.249 384.067 47.7327 383.618 47.0811C383.178 46.4294 382.958 45.6888 382.958 44.8594C382.958 43.5306 383.47 42.443 384.494 41.5967C385.527 40.7419 386.906 40.2975 388.633 40.2637H394.866ZM388.696 46.6875H391.21V43.209H388.823C388.172 43.209 387.643 43.3825 387.236 43.7295C386.83 44.068 386.627 44.4827 386.627 44.9736C386.627 45.4645 386.822 45.8708 387.211 46.1924C387.6 46.514 388.095 46.679 388.696 46.6875ZM412.398 54C412.229 53.6699 412.106 53.2594 412.03 52.7686C411.142 53.7588 409.986 54.2539 408.564 54.2539C407.219 54.2539 406.102 53.8646 405.213 53.0859C404.333 52.3073 403.893 51.3255 403.893 50.1406C403.893 48.6849 404.43 47.5677 405.505 46.7891C406.588 46.0104 408.15 45.6169 410.189 45.6084H411.878V44.8213C411.878 44.1865 411.713 43.6787 411.383 43.2979C411.061 42.917 410.549 42.7266 409.847 42.7266C409.229 42.7266 408.742 42.8747 408.387 43.1709C408.04 43.4671 407.866 43.8734 407.866 44.3896H404.197C404.197 43.5941 404.443 42.8577 404.934 42.1807C405.424 41.5036 406.118 40.9746 407.016 40.5938C407.913 40.2044 408.92 40.0098 410.037 40.0098C411.73 40.0098 413.071 40.4372 414.062 41.292C415.06 42.1383 415.56 43.3317 415.56 44.8721V50.8262C415.568 52.1296 415.75 53.1156 416.105 53.7842V54H412.398ZM409.364 51.4482C409.906 51.4482 410.405 51.3298 410.862 51.0928C411.319 50.8473 411.658 50.5215 411.878 50.1152V47.7539H410.507C408.67 47.7539 407.693 48.3887 407.574 49.6582L407.562 49.874C407.562 50.3311 407.722 50.7077 408.044 51.0039C408.366 51.3001 408.806 51.4482 409.364 51.4482ZM418.568 51.042C419.398 50.1618 419.961 49.29 420.257 48.4268C420.553 47.5635 420.718 46.3405 420.752 44.7578L420.854 40.2637H430.959V51.042H432.939V58.126H429.271V54H421.133V58.126H417.388V51.042H418.568ZM422.897 51.042H427.303V43.2979H424.446L424.421 44.9482C424.345 47.4704 423.837 49.5016 422.897 51.042ZM435.047 54V40.2637H440.785C442.656 40.2637 444.09 40.5938 445.089 41.2539C446.088 41.9141 446.587 42.862 446.587 44.0977C446.587 44.7324 446.375 45.3037 445.952 45.8115C445.537 46.3109 444.928 46.696 444.124 46.9668C445.106 47.153 445.876 47.5212 446.435 48.0713C447.002 48.613 447.285 49.2816 447.285 50.0771C447.285 51.3551 446.803 52.3285 445.838 52.9971C444.882 53.6657 443.489 54 441.661 54H435.047ZM438.716 48.2998V51.0674H441.674C442.969 51.0674 443.616 50.6146 443.616 49.709C443.616 48.7865 442.998 48.3167 441.763 48.2998H438.716ZM438.716 45.8369H440.988C442.275 45.82 442.918 45.4053 442.918 44.5928C442.918 44.0934 442.74 43.738 442.385 43.5264C442.038 43.3148 441.505 43.209 440.785 43.209H438.716V45.8369ZM448.961 47.0049C448.961 45.6423 449.223 44.4277 449.748 43.3613C450.273 42.2949 451.026 41.4697 452.008 40.8857C452.998 40.3018 454.145 40.0098 455.448 40.0098C457.302 40.0098 458.812 40.5768 459.98 41.7109C461.157 42.8451 461.813 44.3854 461.948 46.332L461.974 47.2715C461.974 49.3789 461.385 51.0716 460.209 52.3496C459.033 53.6191 457.454 54.2539 455.474 54.2539C453.493 54.2539 451.91 53.6191 450.726 52.3496C449.549 51.0801 448.961 49.3535 448.961 47.1699V47.0049ZM452.63 47.2715C452.63 48.5749 452.875 49.5736 453.366 50.2676C453.857 50.9531 454.56 51.2959 455.474 51.2959C456.362 51.2959 457.056 50.9574 457.556 50.2803C458.055 49.5947 458.305 48.5029 458.305 47.0049C458.305 45.7269 458.055 44.7367 457.556 44.0342C457.056 43.3317 456.354 42.9805 455.448 42.9805C454.551 42.9805 453.857 43.3317 453.366 44.0342C452.875 44.7282 452.63 45.8073 452.63 47.2715ZM469.616 48.9346H468.144V54H464.475V40.2637H468.144V45.4307H469.451L472.447 40.2637H477.081L472.587 46.8018L477.5 54H472.612L469.616 48.9346ZM486.844 54C486.674 53.6699 486.552 53.2594 486.476 52.7686C485.587 53.7588 484.432 54.2539 483.01 54.2539C481.664 54.2539 480.547 53.8646 479.658 53.0859C478.778 52.3073 478.338 51.3255 478.338 50.1406C478.338 48.6849 478.875 47.5677 479.95 46.7891C481.034 46.0104 482.595 45.6169 484.635 45.6084H486.323V44.8213C486.323 44.1865 486.158 43.6787 485.828 43.2979C485.507 42.917 484.994 42.7266 484.292 42.7266C483.674 42.7266 483.188 42.8747 482.832 43.1709C482.485 43.4671 482.312 43.8734 482.312 44.3896H478.643C478.643 43.5941 478.888 42.8577 479.379 42.1807C479.87 41.5036 480.564 40.9746 481.461 40.5938C482.358 40.2044 483.365 40.0098 484.482 40.0098C486.175 40.0098 487.517 40.4372 488.507 41.292C489.506 42.1383 490.005 43.3317 490.005 44.8721V50.8262C490.013 52.1296 490.195 53.1156 490.551 53.7842V54H486.844ZM483.81 51.4482C484.351 51.4482 484.851 51.3298 485.308 51.0928C485.765 50.8473 486.103 50.5215 486.323 50.1152V47.7539H484.952C483.116 47.7539 482.138 48.3887 482.02 49.6582L482.007 49.874C482.007 50.3311 482.168 50.7077 482.489 51.0039C482.811 51.3001 483.251 51.4482 483.81 51.4482ZM504.021 43.209H499.615V54H495.934V43.209H491.604V40.2637H504.021V43.209ZM504.922 47.0049C504.922 45.6423 505.184 44.4277 505.709 43.3613C506.234 42.2949 506.987 41.4697 507.969 40.8857C508.959 40.3018 510.106 40.0098 511.409 40.0098C513.263 40.0098 514.773 40.5768 515.941 41.7109C517.118 42.8451 517.774 44.3854 517.909 46.332L517.935 47.2715C517.935 49.3789 517.346 51.0716 516.17 52.3496C514.993 53.6191 513.415 54.2539 511.435 54.2539C509.454 54.2539 507.871 53.6191 506.687 52.3496C505.51 51.0801 504.922 49.3535 504.922 47.1699V47.0049ZM508.591 47.2715C508.591 48.5749 508.836 49.5736 509.327 50.2676C509.818 50.9531 510.521 51.2959 511.435 51.2959C512.323 51.2959 513.017 50.9574 513.517 50.2803C514.016 49.5947 514.266 48.5029 514.266 47.0049C514.266 45.7269 514.016 44.7367 513.517 44.0342C513.017 43.3317 512.315 42.9805 511.409 42.9805C510.512 42.9805 509.818 43.3317 509.327 44.0342C508.836 44.7282 508.591 45.8073 508.591 47.2715ZM520.436 54V40.2637H526.174C528.044 40.2637 529.479 40.5938 530.478 41.2539C531.476 41.9141 531.976 42.862 531.976 44.0977C531.976 44.7324 531.764 45.3037 531.341 45.8115C530.926 46.3109 530.317 46.696 529.513 46.9668C530.494 47.153 531.265 47.5212 531.823 48.0713C532.39 48.613 532.674 49.2816 532.674 50.0771C532.674 51.3551 532.191 52.3285 531.227 52.9971C530.27 53.6657 528.878 54 527.05 54H520.436ZM524.104 48.2998V51.0674H527.062C528.357 51.0674 529.005 50.6146 529.005 49.709C529.005 48.7865 528.387 48.3167 527.151 48.2998H524.104ZM524.104 45.8369H526.377C527.663 45.82 528.307 45.4053 528.307 44.5928C528.307 44.0934 528.129 43.738 527.773 43.5264C527.426 43.3148 526.893 43.209 526.174 43.209H524.104V45.8369Z" fill="white"/>
</svg>
