<svg width="455" height="60" viewBox="0 0 455 60" fill="none" xmlns="http://www.w3.org/2000/svg">
<path fill-rule="evenodd" clip-rule="evenodd" d="M24 60C37.2548 60 48 46.5685 48 30C48 13.4315 37.2548 0 24 0C10.7452 0 0 13.4315 0 30C0 46.5685 10.7452 60 24 60ZM24 58.5C36.3712 58.5 46.4 45.7401 46.4 30C46.4 14.2599 36.3712 1.49998 24 1.49998C11.6288 1.49998 1.60002 14.2599 1.60002 30C1.60002 45.7401 11.6288 58.5 24 58.5Z" fill="white"/>
<path d="M9.56532 23.2328C8.80926 20.0436 9.70901 18.1309 12.7509 16.5363C15.5961 15.0457 18.7353 14.4768 21.954 14.2811C26.4108 14.0119 30.7968 14.3687 34.9374 16.0265C36.0206 16.4588 36.9823 17.2031 37.8909 17.9229C38.3153 18.2594 38.4833 18.8752 38.8393 19.489C35.9256 19.489 33.2484 19.489 30.6243 19.489C30.5226 19.3809 30.4364 19.334 30.432 19.2789C30.1888 16.9686 28.5861 15.9633 26.3113 15.5392C23.8795 15.0865 21.4787 15.2802 19.0757 15.684C18.8966 15.7146 18.7109 15.7574 18.5496 15.8349C17.7294 16.2325 16.529 16.4038 16.5997 17.5069C16.666 18.5367 17.6586 18.9955 18.6336 19.2789C21.0543 19.9824 23.4993 20.6166 25.9111 21.3445C29.404 22.3988 32.9411 23.3612 36.3279 24.6581C38.0766 25.329 39.7081 26.4729 41.0964 27.6882C43.3469 29.6601 43.1589 32.1784 40.8289 34.0829C40.0441 34.7252 39.0957 35.2003 38.2048 35.7631C39.9534 39.564 38.8039 42.3128 34.5284 43.9991C30.1225 45.7364 25.469 45.9913 20.758 45.6406C17.3602 45.3877 14.0442 44.8107 11.0642 43.1569C9.49679 42.2883 8.78936 41.4053 8.6302 40.1309C11.4754 40.1309 14.3117 40.1309 17.1458 40.1309C17.7714 43.0081 18.8126 44.0949 22.0248 44.3519C24.3747 44.5395 26.7822 44.3152 29.1432 44.0868C30.2021 43.9848 31.4556 43.524 31.5617 42.3311C31.67 41.1178 30.4232 40.7345 29.4372 40.4429C25.6569 39.3234 21.8236 38.3548 18.0588 37.1946C15.3087 36.3463 12.6315 35.2982 9.9345 34.3113C9.42825 34.1257 8.97064 33.8198 8.50419 33.5486C3.97448 30.9304 4.9295 25.9468 8.49976 23.8465C8.838 23.6508 9.17845 23.455 9.56532 23.2328ZM37.3581 35.3267C30.4563 35.3267 23.6209 35.3267 16.7257 35.3267C19.9556 39.4111 33.9647 39.4927 37.3581 35.3267ZM7.16672 31.7848C11.0818 36.228 25.2214 35.7183 27.8168 31.7848C20.9725 31.7848 14.1525 31.7848 7.16672 31.7848ZM10.0848 23.9974C9.82397 25.3616 10.3192 26.1507 11.3692 26.5688C12.8836 27.1723 14.4134 27.7596 15.9874 28.2082C23.223 30.2718 30.7349 31.5748 37.5305 34.8741C37.6344 33.9218 37.2277 33.1755 36.266 32.7391C35.4105 32.3517 34.5483 31.9479 33.6419 31.691C27.8477 30.0516 22.0424 28.4447 16.235 26.8379C14.0729 26.2405 11.7804 25.9122 10.0848 23.9974Z" fill="white"/>
<path d="M80.0859 20.1914H73.4082L72.1387 24H68.0889L74.9697 5.51562H78.499L85.418 24H81.3682L80.0859 20.1914ZM74.4365 17.1064H79.0576L76.7344 10.1875L74.4365 17.1064ZM87.0938 21.042C87.9232 20.1618 88.486 19.29 88.7822 18.4268C89.0785 17.5635 89.2435 16.3405 89.2773 14.7578L89.3789 10.2637H99.4844V21.042H101.465V28.126H97.7959V24H89.6582V28.126H85.9131V21.042H87.0938ZM91.4229 21.042H95.8281V13.2979H92.9717L92.9463 14.9482C92.8701 17.4704 92.3623 19.5016 91.4229 21.042ZM103.572 24V10.2637H109.311C111.181 10.2637 112.616 10.5938 113.614 11.2539C114.613 11.9141 115.112 12.862 115.112 14.0977C115.112 14.7324 114.901 15.3037 114.478 15.8115C114.063 16.3109 113.453 16.696 112.649 16.9668C113.631 17.153 114.401 17.5212 114.96 18.0713C115.527 18.613 115.811 19.2816 115.811 20.0771C115.811 21.3551 115.328 22.3285 114.363 22.9971C113.407 23.6657 112.015 24 110.187 24H103.572ZM107.241 18.2998V21.0674H110.199C111.494 21.0674 112.142 20.6146 112.142 19.709C112.142 18.7865 111.524 18.3167 110.288 18.2998H107.241ZM107.241 15.8369H109.514C110.8 15.82 111.443 15.4053 111.443 14.5928C111.443 14.0934 111.266 13.738 110.91 13.5264C110.563 13.3148 110.03 13.209 109.311 13.209H107.241V15.8369ZM117.486 17.0049C117.486 15.6423 117.749 14.4277 118.273 13.3613C118.798 12.2949 119.551 11.4697 120.533 10.8857C121.523 10.3018 122.67 10.0098 123.974 10.0098C125.827 10.0098 127.338 10.5768 128.506 11.7109C129.682 12.8451 130.338 14.3854 130.474 16.332L130.499 17.2715C130.499 19.3789 129.911 21.0716 128.734 22.3496C127.558 23.6191 125.979 24.2539 123.999 24.2539C122.019 24.2539 120.436 23.6191 119.251 22.3496C118.075 21.0801 117.486 19.3535 117.486 17.1699V17.0049ZM121.155 17.2715C121.155 18.5749 121.401 19.5736 121.892 20.2676C122.382 20.9531 123.085 21.2959 123.999 21.2959C124.888 21.2959 125.582 20.9574 126.081 20.2803C126.58 19.5947 126.83 18.5029 126.83 17.0049C126.83 15.7269 126.58 14.7367 126.081 14.0342C125.582 13.3317 124.879 12.9805 123.974 12.9805C123.076 12.9805 122.382 13.3317 121.892 14.0342C121.401 14.7282 121.155 15.8073 121.155 17.2715ZM138.142 18.9346H136.669V24H133V10.2637H136.669V15.4307H137.977L140.973 10.2637H145.606L141.112 16.8018L146.025 24H141.138L138.142 18.9346ZM155.369 24C155.2 23.6699 155.077 23.2594 155.001 22.7686C154.112 23.7588 152.957 24.2539 151.535 24.2539C150.189 24.2539 149.072 23.8646 148.184 23.0859C147.303 22.3073 146.863 21.3255 146.863 20.1406C146.863 18.6849 147.401 17.5677 148.476 16.7891C149.559 16.0104 151.12 15.6169 153.16 15.6084H154.849V14.8213C154.849 14.1865 154.684 13.6787 154.354 13.2979C154.032 12.917 153.52 12.7266 152.817 12.7266C152.2 12.7266 151.713 12.8747 151.357 13.1709C151.01 13.4671 150.837 13.8734 150.837 14.3896H147.168C147.168 13.5941 147.413 12.8577 147.904 12.1807C148.395 11.5036 149.089 10.9746 149.986 10.5938C150.883 10.2044 151.891 10.0098 153.008 10.0098C154.701 10.0098 156.042 10.4372 157.032 11.292C158.031 12.1383 158.53 13.3317 158.53 14.8721V20.8262C158.539 22.1296 158.721 23.1156 159.076 23.7842V24H155.369ZM152.335 21.4482C152.877 21.4482 153.376 21.3298 153.833 21.0928C154.29 20.8473 154.629 20.5215 154.849 20.1152V17.7539H153.478C151.641 17.7539 150.663 18.3887 150.545 19.6582L150.532 19.874C150.532 20.3311 150.693 20.7077 151.015 21.0039C151.336 21.3001 151.776 21.4482 152.335 21.4482ZM172.546 13.209H168.141V24H164.459V13.209H160.13V10.2637H172.546V13.209ZM179.3 21.2959C179.977 21.2959 180.527 21.1097 180.95 20.7373C181.373 20.3649 181.593 19.8698 181.61 19.252H185.051C185.042 20.1829 184.788 21.0378 184.289 21.8164C183.79 22.5866 183.104 23.1875 182.232 23.6191C181.369 24.0423 180.413 24.2539 179.363 24.2539C177.4 24.2539 175.851 23.6318 174.717 22.3877C173.583 21.1351 173.016 19.4085 173.016 17.208V16.9668C173.016 14.8509 173.578 13.1624 174.704 11.9014C175.83 10.6403 177.374 10.0098 179.338 10.0098C181.056 10.0098 182.431 10.5007 183.464 11.4824C184.505 12.4557 185.034 13.7549 185.051 15.3799H181.61C181.593 14.6689 181.373 14.0934 180.95 13.6533C180.527 13.2048 179.968 12.9805 179.274 12.9805C178.42 12.9805 177.772 13.2936 177.332 13.9199C176.9 14.5378 176.685 15.5449 176.685 16.9414V17.3223C176.685 18.7357 176.9 19.7513 177.332 20.3691C177.764 20.987 178.42 21.2959 179.3 21.2959ZM192.528 18.9346H191.056V24H187.387V10.2637H191.056V15.4307H192.363L195.359 10.2637H199.993L195.499 16.8018L200.412 24H195.524L192.528 18.9346ZM209.756 24C209.587 23.6699 209.464 23.2594 209.388 22.7686C208.499 23.7588 207.344 24.2539 205.922 24.2539C204.576 24.2539 203.459 23.8646 202.57 23.0859C201.69 22.3073 201.25 21.3255 201.25 20.1406C201.25 18.6849 201.787 17.5677 202.862 16.7891C203.946 16.0104 205.507 15.6169 207.547 15.6084H209.235V14.8213C209.235 14.1865 209.07 13.6787 208.74 13.2979C208.419 12.917 207.907 12.7266 207.204 12.7266C206.586 12.7266 206.1 12.8747 205.744 13.1709C205.397 13.4671 205.224 13.8734 205.224 14.3896H201.555C201.555 13.5941 201.8 12.8577 202.291 12.1807C202.782 11.5036 203.476 10.9746 204.373 10.5938C205.27 10.2044 206.277 10.0098 207.395 10.0098C209.087 10.0098 210.429 10.4372 211.419 11.292C212.418 12.1383 212.917 13.3317 212.917 14.8721V20.8262C212.925 22.1296 213.107 23.1156 213.463 23.7842V24H209.756ZM206.722 21.4482C207.263 21.4482 207.763 21.3298 208.22 21.0928C208.677 20.8473 209.015 20.5215 209.235 20.1152V17.7539H207.864C206.028 17.7539 205.05 18.3887 204.932 19.6582L204.919 19.874C204.919 20.3311 205.08 20.7077 205.401 21.0039C205.723 21.3001 206.163 21.4482 206.722 21.4482ZM227.187 10.2637V24H223.53V19.252H221.207L218.566 24H214.847L217.843 18.6299C217.022 18.249 216.387 17.7327 215.938 17.0811C215.498 16.4294 215.278 15.6888 215.278 14.8594C215.278 13.5306 215.79 12.443 216.814 11.5967C217.847 10.7419 219.227 10.2975 220.953 10.2637H227.187ZM221.017 16.6875H223.53V13.209H221.144C220.492 13.209 219.963 13.3825 219.557 13.7295C219.15 14.068 218.947 14.4827 218.947 14.9736C218.947 15.4645 219.142 15.8708 219.531 16.1924C219.921 16.514 220.416 16.679 221.017 16.6875ZM242.142 18.9346H240.669V24H237V10.2637H240.669V15.4307H241.977L244.973 10.2637H249.606L245.112 16.8018L250.025 24H245.138L242.142 18.9346ZM250.102 17.0049C250.102 15.6423 250.364 14.4277 250.889 13.3613C251.413 12.2949 252.167 11.4697 253.148 10.8857C254.139 10.3018 255.285 10.0098 256.589 10.0098C258.442 10.0098 259.953 10.5768 261.121 11.7109C262.298 12.8451 262.953 14.3854 263.089 16.332L263.114 17.2715C263.114 19.3789 262.526 21.0716 261.35 22.3496C260.173 23.6191 258.595 24.2539 256.614 24.2539C254.634 24.2539 253.051 23.6191 251.866 22.3496C250.69 21.0801 250.102 19.3535 250.102 17.1699V17.0049ZM253.771 17.2715C253.771 18.5749 254.016 19.5736 254.507 20.2676C254.998 20.9531 255.7 21.2959 256.614 21.2959C257.503 21.2959 258.197 20.9574 258.696 20.2803C259.196 19.5947 259.445 18.5029 259.445 17.0049C259.445 15.7269 259.196 14.7367 258.696 14.0342C258.197 13.3317 257.494 12.9805 256.589 12.9805C255.692 12.9805 254.998 13.3317 254.507 14.0342C254.016 14.7282 253.771 15.8073 253.771 17.2715ZM277.282 24H273.601V18.7188H269.043V24H265.374V10.2637H269.043V15.7734H273.601V10.2637H277.282V24ZM285.839 21.2959C286.516 21.2959 287.066 21.1097 287.489 20.7373C287.912 20.3649 288.132 19.8698 288.149 19.252H291.59C291.581 20.1829 291.327 21.0378 290.828 21.8164C290.329 22.5866 289.643 23.1875 288.771 23.6191C287.908 24.0423 286.952 24.2539 285.902 24.2539C283.939 24.2539 282.39 23.6318 281.256 22.3877C280.122 21.1351 279.555 19.4085 279.555 17.208V16.9668C279.555 14.8509 280.118 13.1624 281.243 11.9014C282.369 10.6403 283.913 10.0098 285.877 10.0098C287.595 10.0098 288.97 10.5007 290.003 11.4824C291.044 12.4557 291.573 13.7549 291.59 15.3799H288.149C288.132 14.6689 287.912 14.0934 287.489 13.6533C287.066 13.2048 286.507 12.9805 285.813 12.9805C284.959 12.9805 284.311 13.2936 283.871 13.9199C283.439 14.5378 283.224 15.5449 283.224 16.9414V17.3223C283.224 18.7357 283.439 19.7513 283.871 20.3691C284.303 20.987 284.959 21.2959 285.839 21.2959ZM298.813 18.8076L301.353 10.2637H305.288L299.766 26.1328L299.461 26.8564C298.64 28.6507 297.286 29.5479 295.398 29.5479C294.865 29.5479 294.324 29.4674 293.773 29.3066V26.5264L294.332 26.5391C295.026 26.5391 295.542 26.4333 295.881 26.2217C296.228 26.0101 296.499 25.6589 296.693 25.168L297.125 24.0381L292.313 10.2637H296.262L298.813 18.8076ZM318.148 10.2637V24H314.479V13.2344H311.242L311.014 17.4746C310.87 19.7344 310.425 21.3805 309.681 22.4131C308.936 23.4456 307.827 23.9746 306.354 24H305.11L305.072 21.0166L305.529 20.9785C306.189 20.9277 306.672 20.5384 306.977 19.8105C307.281 19.0827 307.472 17.8428 307.548 16.0908L307.802 10.2637H318.148ZM324.902 14.2881H327.53C328.715 14.2881 329.756 14.487 330.653 14.8848C331.55 15.2826 332.236 15.8538 332.71 16.5986C333.192 17.335 333.434 18.194 333.434 19.1758C333.434 20.623 332.896 21.791 331.821 22.6797C330.755 23.5599 329.299 24 327.454 24H321.221V10.2637H324.902V14.2881ZM324.902 17.2334V21.0674H327.505C328.233 21.0674 328.791 20.8981 329.181 20.5596C329.57 20.221 329.765 19.7598 329.765 19.1758C329.765 18.5833 329.574 18.1136 329.193 17.7666C328.812 17.4111 328.25 17.2334 327.505 17.2334H324.902ZM344.999 13.209H340.594V24H336.912V13.209H332.583V10.2637H344.999V13.209ZM354.609 24C354.44 23.6699 354.317 23.2594 354.241 22.7686C353.353 23.7588 352.197 24.2539 350.775 24.2539C349.43 24.2539 348.312 23.8646 347.424 23.0859C346.544 22.3073 346.104 21.3255 346.104 20.1406C346.104 18.6849 346.641 17.5677 347.716 16.7891C348.799 16.0104 350.361 15.6169 352.4 15.6084H354.089V14.8213C354.089 14.1865 353.924 13.6787 353.594 13.2979C353.272 12.917 352.76 12.7266 352.058 12.7266C351.44 12.7266 350.953 12.8747 350.598 13.1709C350.251 13.4671 350.077 13.8734 350.077 14.3896H346.408C346.408 13.5941 346.654 12.8577 347.145 12.1807C347.635 11.5036 348.329 10.9746 349.227 10.5938C350.124 10.2044 351.131 10.0098 352.248 10.0098C353.941 10.0098 355.282 10.4372 356.272 11.292C357.271 12.1383 357.771 13.3317 357.771 14.8721V20.8262C357.779 22.1296 357.961 23.1156 358.316 23.7842V24H354.609ZM351.575 21.4482C352.117 21.4482 352.616 21.3298 353.073 21.0928C353.53 20.8473 353.869 20.5215 354.089 20.1152V17.7539H352.718C350.881 17.7539 349.904 18.3887 349.785 19.6582L349.772 19.874C349.772 20.3311 349.933 20.7077 350.255 21.0039C350.576 21.3001 351.017 21.4482 351.575 21.4482ZM360.589 10.2637H364.258V21.042H368.854V10.2637H372.535V21.0674H374.592L374.338 28.0752H370.923V24H360.589V10.2637ZM384.71 10.2637H388.379V24H384.71V15.5195L380.114 24H376.433V10.2637H380.114V18.7314L384.71 10.2637ZM402.636 10.2637V24H398.979V19.252H396.656L394.016 24H390.296L393.292 18.6299C392.471 18.249 391.836 17.7327 391.388 17.0811C390.948 16.4294 390.728 15.6888 390.728 14.8594C390.728 13.5306 391.24 12.443 392.264 11.5967C393.296 10.7419 394.676 10.2975 396.402 10.2637H402.636ZM396.466 16.6875H398.979V13.209H396.593C395.941 13.209 395.412 13.3825 395.006 13.7295C394.6 14.068 394.396 14.4827 394.396 14.9736C394.396 15.4645 394.591 15.8708 394.98 16.1924C395.37 16.514 395.865 16.679 396.466 16.6875ZM71.8467 47.3477L74.8936 52.4131H72.5322L68.9775 47.4619V47.2207L72.5322 42.2695H74.8936L71.8467 47.3477ZM76.7344 47.3477L79.7812 52.4131H77.4199L73.8652 47.4619V47.2207L77.4199 42.2695H79.7812L76.7344 47.3477ZM82.6504 54V35.5156H89.125C91.3678 35.5156 93.069 35.9473 94.2285 36.8105C95.388 37.6654 95.9678 38.9222 95.9678 40.5811C95.9678 41.4867 95.735 42.2865 95.2695 42.9805C94.804 43.666 94.1566 44.1696 93.3271 44.4912C94.2751 44.7282 95.0199 45.2064 95.5615 45.9258C96.1117 46.6452 96.3867 47.5254 96.3867 48.5664C96.3867 50.3438 95.8197 51.6895 94.6855 52.6035C93.5514 53.5176 91.9349 53.9831 89.8359 54H82.6504ZM86.459 45.9512V50.9404H89.7217C90.6188 50.9404 91.3171 50.7288 91.8164 50.3057C92.3242 49.874 92.5781 49.2816 92.5781 48.5283C92.5781 46.8356 91.7021 45.9766 89.9502 45.9512H86.459ZM86.459 43.2598H89.2773C91.1986 43.2259 92.1592 42.46 92.1592 40.9619C92.1592 40.124 91.9137 39.5231 91.4229 39.1592C90.9404 38.7868 90.1745 38.6006 89.125 38.6006H86.459V43.2598ZM102.938 44.2881H105.565C106.75 44.2881 107.791 44.487 108.688 44.8848C109.586 45.2826 110.271 45.8538 110.745 46.5986C111.228 47.335 111.469 48.194 111.469 49.1758C111.469 50.623 110.931 51.791 109.856 52.6797C108.79 53.5599 107.334 54 105.489 54H99.2559V40.2637H102.938V44.2881ZM117.309 54H113.64V40.2637H117.309V54ZM102.938 47.2334V51.0674H105.54C106.268 51.0674 106.826 50.8981 107.216 50.5596C107.605 50.221 107.8 49.7598 107.8 49.1758C107.8 48.5833 107.609 48.1136 107.229 47.7666C106.848 47.4111 106.285 47.2334 105.54 47.2334H102.938ZM127.363 41.0254C129.124 41.0254 130.529 41.6094 131.578 42.7773C132.628 43.9453 133.152 45.5322 133.152 47.5381V47.7158C133.152 49.6963 132.568 51.2832 131.4 52.4766C130.232 53.6699 128.662 54.2666 126.69 54.2666C124.71 54.2666 123.132 53.6234 121.955 52.3369C120.787 51.042 120.203 49.2858 120.203 47.0684V46.459C120.22 43.3698 120.741 40.9535 121.765 39.21C122.797 37.458 124.346 36.3535 126.411 35.8965C127.494 35.6595 128.193 35.4268 128.506 35.1982C128.819 34.9613 128.976 34.6354 128.976 34.2207H131.946C131.946 35.5495 131.587 36.5482 130.867 37.2168C130.156 37.8854 128.887 38.4017 127.059 38.7656C125.975 38.9857 125.12 39.4131 124.494 40.0479C123.868 40.6826 123.445 41.5755 123.225 42.7266C124.393 41.5924 125.772 41.0254 127.363 41.0254ZM126.665 43.9961C125.793 43.9961 125.108 44.2881 124.608 44.8721C124.118 45.4561 123.872 46.404 123.872 47.7158C123.872 48.8838 124.113 49.7767 124.596 50.3945C125.078 51.0039 125.776 51.3086 126.69 51.3086C127.579 51.3086 128.265 51.0081 128.747 50.4072C129.229 49.8063 129.475 48.9219 129.483 47.7539V47.4492C129.483 46.3236 129.234 45.4688 128.734 44.8848C128.243 44.2923 127.554 43.9961 126.665 43.9961ZM134.777 47.0049C134.777 45.6423 135.04 44.4277 135.564 43.3613C136.089 42.2949 136.842 41.4697 137.824 40.8857C138.814 40.3018 139.961 40.0098 141.265 40.0098C143.118 40.0098 144.629 40.5768 145.797 41.7109C146.973 42.8451 147.629 44.3854 147.765 46.332L147.79 47.2715C147.79 49.3789 147.202 51.0716 146.025 52.3496C144.849 53.6191 143.271 54.2539 141.29 54.2539C139.31 54.2539 137.727 53.6191 136.542 52.3496C135.366 51.0801 134.777 49.3535 134.777 47.1699V47.0049ZM138.446 47.2715C138.446 48.5749 138.692 49.5736 139.183 50.2676C139.674 50.9531 140.376 51.2959 141.29 51.2959C142.179 51.2959 142.873 50.9574 143.372 50.2803C143.871 49.5947 144.121 48.5029 144.121 47.0049C144.121 45.7269 143.871 44.7367 143.372 44.0342C142.873 43.3317 142.17 42.9805 141.265 42.9805C140.368 42.9805 139.674 43.3317 139.183 44.0342C138.692 44.7282 138.446 45.8073 138.446 47.2715ZM162.415 47.2588C162.415 49.3747 161.933 51.0716 160.968 52.3496C160.011 53.6191 158.716 54.2539 157.083 54.2539C155.695 54.2539 154.574 53.7715 153.719 52.8066V59.2812H150.05V40.2637H153.452L153.579 41.6094C154.468 40.543 155.627 40.0098 157.058 40.0098C158.75 40.0098 160.066 40.6361 161.006 41.8887C161.945 43.1413 162.415 44.8678 162.415 47.0684V47.2588ZM158.746 46.9922C158.746 45.7142 158.518 44.7282 158.061 44.0342C157.612 43.3402 156.956 42.9932 156.093 42.9932C154.942 42.9932 154.15 43.4333 153.719 44.3135V49.9375C154.167 50.8431 154.967 51.2959 156.118 51.2959C157.87 51.2959 158.746 49.8613 158.746 46.9922ZM174.057 43.2344H168.369V54H164.7V40.2637H174.057V43.2344ZM181.052 51.2959C181.729 51.2959 182.279 51.1097 182.702 50.7373C183.125 50.3649 183.345 49.8698 183.362 49.252H186.803C186.794 50.1829 186.54 51.0378 186.041 51.8164C185.542 52.5866 184.856 53.1875 183.984 53.6191C183.121 54.0423 182.165 54.2539 181.115 54.2539C179.152 54.2539 177.603 53.6318 176.469 52.3877C175.335 51.1351 174.768 49.4085 174.768 47.208V46.9668C174.768 44.8509 175.33 43.1624 176.456 41.9014C177.582 40.6403 179.126 40.0098 181.09 40.0098C182.808 40.0098 184.183 40.5007 185.216 41.4824C186.257 42.4557 186.786 43.7549 186.803 45.3799H183.362C183.345 44.6689 183.125 44.0934 182.702 43.6533C182.279 43.2048 181.72 42.9805 181.026 42.9805C180.172 42.9805 179.524 43.2936 179.084 43.9199C178.652 44.5378 178.437 45.5449 178.437 46.9414V47.3223C178.437 48.7357 178.652 49.7513 179.084 50.3691C179.516 50.987 180.172 51.2959 181.052 51.2959ZM194.28 48.9346H192.808V54H189.139V40.2637H192.808V45.4307H194.115L197.111 40.2637H201.745L197.251 46.8018L202.164 54H197.276L194.28 48.9346ZM211.508 54C211.339 53.6699 211.216 53.2594 211.14 52.7686C210.251 53.7588 209.096 54.2539 207.674 54.2539C206.328 54.2539 205.211 53.8646 204.322 53.0859C203.442 52.3073 203.002 51.3255 203.002 50.1406C203.002 48.6849 203.539 47.5677 204.614 46.7891C205.698 46.0104 207.259 45.6169 209.299 45.6084H210.987V44.8213C210.987 44.1865 210.822 43.6787 210.492 43.2979C210.171 42.917 209.659 42.7266 208.956 42.7266C208.338 42.7266 207.852 42.8747 207.496 43.1709C207.149 43.4671 206.976 43.8734 206.976 44.3896H203.307C203.307 43.5941 203.552 42.8577 204.043 42.1807C204.534 41.5036 205.228 40.9746 206.125 40.5938C207.022 40.2044 208.029 40.0098 209.146 40.0098C210.839 40.0098 212.181 40.4372 213.171 41.292C214.17 42.1383 214.669 43.3317 214.669 44.8721V50.8262C214.677 52.1296 214.859 53.1156 215.215 53.7842V54H211.508ZM208.474 51.4482C209.015 51.4482 209.515 51.3298 209.972 51.0928C210.429 50.8473 210.767 50.5215 210.987 50.1152V47.7539H209.616C207.78 47.7539 206.802 48.3887 206.684 49.6582L206.671 49.874C206.671 50.3311 206.832 50.7077 207.153 51.0039C207.475 51.3001 207.915 51.4482 208.474 51.4482ZM228.938 40.2637V54H225.282V49.252H222.959L220.318 54H216.599L219.595 48.6299C218.774 48.249 218.139 47.7327 217.69 47.0811C217.25 46.4294 217.03 45.6888 217.03 44.8594C217.03 43.5306 217.542 42.443 218.566 41.5967C219.599 40.7419 220.979 40.2975 222.705 40.2637H228.938ZM222.769 46.6875H225.282V43.209H222.896C222.244 43.209 221.715 43.3825 221.309 43.7295C220.902 44.068 220.699 44.4827 220.699 44.9736C220.699 45.4645 220.894 45.8708 221.283 46.1924C221.673 46.514 222.168 46.679 222.769 46.6875ZM244.224 51.2959C244.901 51.2959 245.451 51.1097 245.874 50.7373C246.297 50.3649 246.517 49.8698 246.534 49.252H249.975C249.966 50.1829 249.712 51.0378 249.213 51.8164C248.714 52.5866 248.028 53.1875 247.156 53.6191C246.293 54.0423 245.337 54.2539 244.287 54.2539C242.324 54.2539 240.775 53.6318 239.641 52.3877C238.507 51.1351 237.939 49.4085 237.939 47.208V46.9668C237.939 44.8509 238.502 43.1624 239.628 41.9014C240.754 40.6403 242.298 40.0098 244.262 40.0098C245.98 40.0098 247.355 40.5007 248.388 41.4824C249.429 42.4557 249.958 43.7549 249.975 45.3799H246.534C246.517 44.6689 246.297 44.0934 245.874 43.6533C245.451 43.2048 244.892 42.9805 244.198 42.9805C243.343 42.9805 242.696 43.2936 242.256 43.9199C241.824 44.5378 241.608 45.5449 241.608 46.9414V47.3223C241.608 48.7357 241.824 49.7513 242.256 50.3691C242.688 50.987 243.343 51.2959 244.224 51.2959ZM263.47 43.209H259.064V54H255.383V43.209H251.054V40.2637H263.47V43.209ZM264.371 47.0049C264.371 45.6423 264.633 44.4277 265.158 43.3613C265.683 42.2949 266.436 41.4697 267.418 40.8857C268.408 40.3018 269.555 40.0098 270.858 40.0098C272.712 40.0098 274.223 40.5768 275.391 41.7109C276.567 42.8451 277.223 44.3854 277.358 46.332L277.384 47.2715C277.384 49.3789 276.796 51.0716 275.619 52.3496C274.443 53.6191 272.864 54.2539 270.884 54.2539C268.903 54.2539 267.321 53.6191 266.136 52.3496C264.959 51.0801 264.371 49.3535 264.371 47.1699V47.0049ZM268.04 47.2715C268.04 48.5749 268.285 49.5736 268.776 50.2676C269.267 50.9531 269.97 51.2959 270.884 51.2959C271.772 51.2959 272.466 50.9574 272.966 50.2803C273.465 49.5947 273.715 48.5029 273.715 47.0049C273.715 45.7269 273.465 44.7367 272.966 44.0342C272.466 43.3317 271.764 42.9805 270.858 42.9805C269.961 42.9805 269.267 43.3317 268.776 44.0342C268.285 44.7282 268.04 45.8073 268.04 47.2715ZM292.009 47.2588C292.009 49.3747 291.526 51.0716 290.562 52.3496C289.605 53.6191 288.31 54.2539 286.677 54.2539C285.289 54.2539 284.167 53.7715 283.312 52.8066V59.2812H279.644V40.2637H283.046L283.173 41.6094C284.062 40.543 285.221 40.0098 286.651 40.0098C288.344 40.0098 289.66 40.6361 290.6 41.8887C291.539 43.1413 292.009 44.8678 292.009 47.0684V47.2588ZM288.34 46.9922C288.34 45.7142 288.111 44.7282 287.654 44.0342C287.206 43.3402 286.55 42.9932 285.687 42.9932C284.535 42.9932 283.744 43.4333 283.312 44.3135V49.9375C283.761 50.8431 284.561 51.2959 285.712 51.2959C287.464 51.2959 288.34 49.8613 288.34 46.9922ZM293.723 47.0049C293.723 45.6423 293.985 44.4277 294.51 43.3613C295.035 42.2949 295.788 41.4697 296.77 40.8857C297.76 40.3018 298.907 40.0098 300.21 40.0098C302.063 40.0098 303.574 40.5768 304.742 41.7109C305.919 42.8451 306.575 44.3854 306.71 46.332L306.735 47.2715C306.735 49.3789 306.147 51.0716 304.971 52.3496C303.794 53.6191 302.216 54.2539 300.235 54.2539C298.255 54.2539 296.672 53.6191 295.487 52.3496C294.311 51.0801 293.723 49.3535 293.723 47.1699V47.0049ZM297.392 47.2715C297.392 48.5749 297.637 49.5736 298.128 50.2676C298.619 50.9531 299.321 51.2959 300.235 51.2959C301.124 51.2959 301.818 50.9574 302.317 50.2803C302.817 49.5947 303.066 48.5029 303.066 47.0049C303.066 45.7269 302.817 44.7367 302.317 44.0342C301.818 43.3317 301.116 42.9805 300.21 42.9805C299.313 42.9805 298.619 43.3317 298.128 44.0342C297.637 44.7282 297.392 45.8073 297.392 47.2715ZM320.903 54H317.222V48.7188H312.664V54H308.995V40.2637H312.664V45.7734H317.222V40.2637H320.903V54ZM331.707 54C331.538 53.6699 331.415 53.2594 331.339 52.7686C330.45 53.7588 329.295 54.2539 327.873 54.2539C326.527 54.2539 325.41 53.8646 324.521 53.0859C323.641 52.3073 323.201 51.3255 323.201 50.1406C323.201 48.6849 323.739 47.5677 324.813 46.7891C325.897 46.0104 327.458 45.6169 329.498 45.6084H331.187V44.8213C331.187 44.1865 331.021 43.6787 330.691 43.2979C330.37 42.917 329.858 42.7266 329.155 42.7266C328.537 42.7266 328.051 42.8747 327.695 43.1709C327.348 43.4671 327.175 43.8734 327.175 44.3896H323.506C323.506 43.5941 323.751 42.8577 324.242 42.1807C324.733 41.5036 325.427 40.9746 326.324 40.5938C327.221 40.2044 328.229 40.0098 329.346 40.0098C331.038 40.0098 332.38 40.4372 333.37 41.292C334.369 42.1383 334.868 43.3317 334.868 44.8721V50.8262C334.877 52.1296 335.059 53.1156 335.414 53.7842V54H331.707ZM328.673 51.4482C329.215 51.4482 329.714 51.3298 330.171 51.0928C330.628 50.8473 330.966 50.5215 331.187 50.1152V47.7539H329.815C327.979 47.7539 327.001 48.3887 326.883 49.6582L326.87 49.874C326.87 50.3311 327.031 50.7077 327.353 51.0039C327.674 51.3001 328.114 51.4482 328.673 51.4482ZM339.73 42.2822L343.285 47.2334V47.4746L339.73 52.4258H337.356L340.403 47.3604L337.356 42.2822H339.73ZM344.72 42.2822L348.274 47.2334V47.4746L344.72 52.4258H342.346L345.393 47.3604L342.346 42.2822H344.72ZM371.913 47.8428C371.769 49.8317 371.033 51.3975 369.704 52.54C368.384 53.6826 366.64 54.2539 364.474 54.2539C362.104 54.2539 360.238 53.4583 358.875 51.8672C357.521 50.2676 356.844 48.0755 356.844 45.291V44.1611C356.844 42.3838 357.157 40.818 357.783 39.4639C358.41 38.1097 359.302 37.0729 360.462 36.3535C361.63 35.6257 362.984 35.2617 364.524 35.2617C366.657 35.2617 368.375 35.833 369.679 36.9756C370.982 38.1182 371.735 39.722 371.938 41.7871H368.13C368.037 40.5938 367.702 39.7305 367.127 39.1973C366.56 38.6556 365.692 38.3848 364.524 38.3848C363.255 38.3848 362.303 38.8418 361.668 39.7559C361.042 40.6615 360.72 42.0706 360.703 43.9834V45.3799C360.703 47.3773 361.004 48.8372 361.604 49.7598C362.214 50.6823 363.17 51.1436 364.474 51.1436C365.65 51.1436 366.526 50.877 367.102 50.3438C367.686 49.8021 368.02 48.9684 368.104 47.8428H371.913ZM389.471 54H385.649V38.6006H378.248V54H374.439V35.5156H389.471V54ZM399.398 41.0254C401.159 41.0254 402.564 41.6094 403.613 42.7773C404.663 43.9453 405.188 45.5322 405.188 47.5381V47.7158C405.188 49.6963 404.604 51.2832 403.436 52.4766C402.268 53.6699 400.698 54.2666 398.726 54.2666C396.745 54.2666 395.167 53.6234 393.99 52.3369C392.822 51.042 392.238 49.2858 392.238 47.0684V46.459C392.255 43.3698 392.776 40.9535 393.8 39.21C394.832 37.458 396.381 36.3535 398.446 35.8965C399.53 35.6595 400.228 35.4268 400.541 35.1982C400.854 34.9613 401.011 34.6354 401.011 34.2207H403.981C403.981 35.5495 403.622 36.5482 402.902 37.2168C402.191 37.8854 400.922 38.4017 399.094 38.7656C398.01 38.9857 397.156 39.4131 396.529 40.0479C395.903 40.6826 395.48 41.5755 395.26 42.7266C396.428 41.5924 397.807 41.0254 399.398 41.0254ZM398.7 43.9961C397.828 43.9961 397.143 44.2881 396.644 44.8721C396.153 45.4561 395.907 46.404 395.907 47.7158C395.907 48.8838 396.148 49.7767 396.631 50.3945C397.113 51.0039 397.812 51.3086 398.726 51.3086C399.614 51.3086 400.3 51.0081 400.782 50.4072C401.265 49.8063 401.51 48.9219 401.519 47.7539V47.4492C401.519 46.3236 401.269 45.4688 400.77 44.8848C400.279 44.2923 399.589 43.9961 398.7 43.9961ZM419.749 38.6006H411.459V54H407.65V35.5156H419.749V38.6006ZM428.153 46.4463H425.957V54H422.148V35.5156H425.957V42.917H427.696L432.216 35.5156H436.862L431.162 44.2627L437.459 54H432.914L428.153 46.4463ZM449.367 50.1914H442.689L441.42 54H437.37L444.251 35.5156H447.78L454.699 54H450.649L449.367 50.1914ZM443.718 47.1064H448.339L446.016 40.1875L443.718 47.1064Z" fill="white"/>
</svg>
