<svg width="64" height="64" viewBox="0 0 64 64" fill="none" xmlns="http://www.w3.org/2000/svg">
<path d="M32 64C49.6731 64 64 49.6731 64 32C64 14.3269 49.6731 0 32 0C14.3269 0 0 14.3269 0 32C0 49.6731 14.3269 64 32 64Z" fill="#CE6439"/>
<path d="M32.2699 42.8L28.0885 39.0913L23.5347 45.3885L40.8942 62.7463C51.6548 59.639 60.0832 51.0365 62.9449 40.1738L40.8763 18.1055L20.6825 23.6643L29.5484 32.5111L29.0953 34.528L36.0595 41.263C36.0595 41.2628 33.6667 43.0582 32.2699 42.8Z" fill="black" fill-opacity="0.2"/>
<path d="M40.8763 18.1053C38.8709 15.8704 35.5215 14.5361 31.9166 14.5361C31.1861 14.5361 30.4534 14.6033 29.7389 14.7356L29.5188 14.7763C27.3253 15.1815 25.3381 16.1898 23.7719 17.6918C22.2373 19.1645 21.212 21.0143 20.8069 23.0409L20.6824 23.664L28.0883 24.2244L28.2389 23.8351C28.6681 22.7264 29.7029 21.8955 30.9393 21.6669L31.1594 21.6263C32.5561 21.3683 33.9905 21.8394 34.9035 22.8569C36.1141 24.2055 35.9933 26.3721 34.6394 27.5883C33.9836 28.1775 30.7556 28.8579 29.6819 28.8131L29.0953 28.788V34.5278L29.6819 34.5026C30.7628 34.4573 33.9839 35.1384 34.6395 35.7275C35.9933 36.9436 36.1141 39.1103 34.9034 40.459C33.9905 41.4764 32.556 41.9476 31.1593 41.6895L30.9394 41.6489C29.7029 41.4203 28.6681 40.5894 28.2389 39.4806L28.0883 39.0914L20.6824 39.6518L20.8069 40.2749C21.2119 42.3015 22.2371 44.1513 23.772 45.6241C25.338 47.1261 27.3253 48.1343 29.5188 48.5395L29.7386 48.5801C30.4534 48.7125 31.1861 48.7796 31.9166 48.7796C35.5215 48.7796 38.8709 47.4454 40.8762 45.2106C44.2552 41.4454 44.0959 35.5915 40.5878 31.6579C44.0959 27.7243 44.2553 21.8704 40.8763 18.1053Z" fill="#F8FFFB"/>
<path d="M40.5875 31.6576C44.0963 35.5913 44.255 41.4451 40.8763 45.2113C38.8863 47.4276 35.5738 48.7588 32 48.7788V41.7576C33.11 41.7363 34.175 41.2726 34.9038 40.4588C36.1138 39.1101 35.9938 36.9438 34.64 35.7276C34.2775 35.4026 33.1338 35.0488 32 34.8051V28.5101C33.1338 28.2663 34.2775 27.9138 34.64 27.5888C35.9938 26.3726 36.1138 24.2063 34.9038 22.8576C34.175 22.0438 33.11 21.5801 32 21.5588V14.5376C35.5738 14.5576 38.8863 15.8876 40.8763 18.1051C44.255 21.8701 44.0963 27.7238 40.5875 31.6576Z" fill="#D8D8D8"/>
</svg>
