<svg width="65" height="64" viewBox="0 0 65 64" fill="none" xmlns="http://www.w3.org/2000/svg">
<path d="M32.5 64C50.1731 64 64.5 49.6731 64.5 32C64.5 14.3269 50.1731 0 32.5 0C14.8269 0 0.5 14.3269 0.5 32C0.5 49.6731 14.8269 64 32.5 64Z" fill="#CE6439"/>
<path d="M64.1048 37.0336L41.9838 14.9126L19.6813 40.5038L41.8024 62.625C53.3799 59.1127 62.1796 49.217 64.1048 37.0336Z" fill="black" fill-opacity="0.3"/>
<path d="M41.9838 33.2538V14.9126H32.5688L19.6813 33.4013V40.5038H34.7338V49.0876H41.9838V40.5038H46.6175V33.2538H41.9838ZM34.7338 33.2538H28.6213L34.7338 24.4863V33.2538Z" fill="#F8FFFB"/>
<path d="M41.9837 33.2538V14.9126H32.5687L32.5 15.0113V27.6901L34.7337 24.4863V33.2538H32.5V40.5038H34.7337V49.0876H41.9837V40.5038H46.6175V33.2538H41.9837Z" fill="#D8D8D8"/>
</svg>
