<svg width="65" height="64" viewBox="0 0 65 64" fill="none" xmlns="http://www.w3.org/2000/svg">
<path d="M32.5 64C50.1731 64 64.5 49.6731 64.5 32C64.5 14.3269 50.1731 0 32.5 0C14.8269 0 0.5 14.3269 0.5 32C0.5 49.6731 14.8269 64 32.5 64Z" fill="#CE6439"/>
<path d="M35.9486 63.8147C49.703 62.3406 60.848 52.1526 63.7561 38.8796L43.1227 18.2461C43.1227 18.2461 26.242 17.7796 20.1445 27.8083L29.1299 36.8164L21.1285 49.0876L35.9486 63.8147Z" fill="black" fill-opacity="0.2"/>
<path d="M45.8097 49.0876H21.1285V40.7564L36.9795 28.7561C38.9895 27.2343 38.5051 25.1124 38.3089 24.4983C38.1198 23.9068 37.3148 21.9708 34.8956 21.9002C34.8418 21.8987 34.7469 21.8978 34.7089 21.8976H31.9061C27.7775 21.8976 27.4568 26.4217 27.4568 27.8083H20.1446C20.1446 20.0228 24.9811 14.5854 31.9061 14.5854L34.7503 14.5856C34.7503 14.5856 34.9893 14.5877 35.1083 14.5911C39.8365 14.7292 43.8264 17.7441 45.2739 22.2717C46.7399 26.8577 45.2166 31.6912 41.3933 34.5858L31.8968 41.7754H45.8099V49.0876H45.8097Z" fill="#F8FFFB"/>
<path d="M41.393 34.5857L32.9841 40.9523V31.7807L36.9792 28.7562C38.9888 27.2346 38.5047 25.1127 38.3092 24.4988C38.1201 23.9063 37.3144 21.9711 34.8952 21.9006C34.8409 21.8993 34.7464 21.8981 34.7086 21.8981H32.9839V14.5859H34.7502C34.7502 14.5859 34.9884 14.5884 35.1082 14.5909C39.8358 14.7296 43.826 17.7439 45.2733 22.2724C46.7396 26.8576 45.2167 31.6912 41.393 34.5857Z" fill="#D8D8D8"/>
<path d="M32.9841 41.7754H45.8093V49.0875H32.9841V41.7754Z" fill="#D8D8D8"/>
</svg>
