<svg width="64" height="64" viewBox="0 0 64 64" fill="none" xmlns="http://www.w3.org/2000/svg">
<path d="M32 64C49.6731 64 64 49.6731 64 32C64 14.3269 49.6731 0 32 0C14.3269 0 0 14.3269 0 32C0 49.6731 14.3269 64 32 64Z" fill="#CE6439"/>
<path d="M42.6453 62.184C52.4343 58.7315 60.0398 50.6536 62.8364 40.5739L36.7987 14.5361C36.7987 14.5361 25.7097 23.8238 26.1649 26.3724L31.2522 31.3983L29.5487 49.0874L42.6453 62.184Z" fill="black" fill-opacity="0.2"/>
<path d="M36.7988 14.5361V49.0874H29.5488V23.4549L26.165 26.3724L21.4313 20.8811L28.3538 14.9124L28.79 14.5361H36.7988Z" fill="#F8FFFB"/>
<path d="M32 14.5361H36.7988V49.0874H32V14.5361Z" fill="#D8D8D8"/>
</svg>
